<svg xmlns="http://www.w3.org/2000/svg" xmlns:xlink="http://www.w3.org/1999/xlink" width="500" zoomAndPan="magnify" viewBox="0 0 375 374.999991" height="500" preserveAspectRatio="xMidYMid meet" version="1.0"><defs><g/><clipPath id="f3f873705a"><path d="M 4 195 L 46 195 L 46 249 L 4 249 Z M 4 195 " clip-rule="nonzero"/></clipPath><clipPath id="a3b7ba3dfe"><path d="M 4.113281 195.117188 L 38.082031 195.117188 C 40.191406 195.117188 41.992188 195.847656 43.476562 197.316406 C 44.964844 198.78125 45.714844 200.59375 45.714844 202.742188 L 45.714844 214.703125 C 45.714844 216.308594 45.261719 217.765625 44.339844 219.070312 C 43.417969 220.378906 42.230469 221.308594 40.765625 221.855469 C 42.230469 222.410156 43.417969 223.328125 44.339844 224.636719 C 45.261719 225.945312 45.714844 227.421875 45.714844 229.074219 L 45.714844 240.96875 C 45.714844 243.125 44.972656 244.929688 43.476562 246.402344 C 41.992188 247.871094 40.191406 248.601562 38.082031 248.601562 L 4.113281 248.601562 Z M 9.480469 219.238281 L 35.535156 219.238281 C 36.863281 219.238281 38.011719 218.753906 38.972656 217.792969 C 39.933594 216.832031 40.417969 215.703125 40.417969 214.425781 L 40.417969 204.453125 C 40.417969 203.304688 39.992188 202.335938 39.148438 201.535156 C 38.296875 200.730469 37.308594 200.335938 36.160156 200.335938 L 9.480469 200.335938 Z M 9.480469 224.46875 L 9.480469 243.375 L 36.160156 243.375 C 37.308594 243.375 38.296875 242.96875 39.148438 242.175781 C 40.003906 241.375 40.417969 240.402344 40.417969 239.253906 L 40.417969 229.28125 C 40.417969 228.003906 39.933594 226.875 38.972656 225.914062 C 38.011719 224.953125 36.863281 224.46875 35.535156 224.46875 Z M 9.480469 224.46875 " clip-rule="nonzero"/></clipPath><clipPath id="7b97f2f681"><path d="M 55.746094 195.117188 L 61.867188 195.117188 L 61.867188 200.34375 L 55.746094 200.34375 Z M 56.300781 210.375 L 61.253906 210.375 L 61.253906 248.601562 L 56.300781 248.601562 Z M 56.300781 210.375 " clip-rule="nonzero"/></clipPath><clipPath id="f71b69f7ed"><path d="M 71 210 L 104 210 L 104 264 L 71 264 Z M 71 210 " clip-rule="nonzero"/></clipPath><clipPath id="118bf77d30"><path d="M 79.535156 210.375 L 88.8125 210.375 C 90.964844 210.375 92.953125 211.019531 94.765625 212.296875 C 96.578125 213.585938 97.867188 215.230469 98.648438 217.25 L 98.648438 210.375 L 103.597656 210.375 L 103.597656 256.238281 C 103.597656 258.386719 102.855469 260.199219 101.359375 261.664062 C 99.875 263.128906 98.074219 263.863281 95.964844 263.863281 L 79.535156 263.863281 C 77.476562 263.863281 75.683594 263.109375 74.167969 261.59375 C 72.652344 260.082031 71.898438 258.296875 71.898438 256.226562 L 71.898438 253.820312 L 76.296875 253.820312 L 76.296875 254.851562 C 76.296875 256.128906 76.730469 257.238281 77.605469 258.148438 C 78.476562 259.070312 79.554688 259.527344 80.832031 259.527344 L 94.03125 259.527344 C 95.320312 259.527344 96.410156 259.070312 97.300781 258.148438 C 98.191406 257.226562 98.636719 256.128906 98.636719 254.851562 L 98.636719 242.066406 C 97.816406 244.039062 96.5 245.621094 94.6875 246.808594 C 92.875 248 90.914062 248.59375 88.804688 248.59375 L 79.523438 248.59375 C 77.367188 248.59375 75.5625 247.859375 74.097656 246.394531 C 72.632812 244.929688 71.898438 243.117188 71.898438 240.957031 L 71.898438 218.0625 C 71.898438 215.914062 72.640625 214.089844 74.136719 212.59375 C 75.625 211.109375 77.425781 210.355469 79.535156 210.355469 Z M 81.050781 215.121094 C 79.902344 215.121094 78.921875 215.554688 78.089844 216.425781 C 77.265625 217.300781 76.851562 218.308594 76.851562 219.449219 L 76.851562 239.589844 C 76.851562 240.738281 77.265625 241.738281 78.089844 242.582031 C 78.910156 243.433594 79.902344 243.847656 81.050781 243.847656 L 90.191406 243.847656 C 92.476562 243.847656 94.46875 243.027344 96.140625 241.375 C 97.816406 239.71875 98.648438 237.75 98.648438 235.460938 L 98.648438 223.84375 C 98.648438 221.457031 97.804688 219.410156 96.140625 217.695312 C 94.46875 215.972656 92.488281 215.121094 90.191406 215.121094 Z M 81.050781 215.121094 " clip-rule="nonzero"/></clipPath><clipPath id="46c7fda932"><path d="M 112.679688 223.09375 L 141.074219 223.09375 L 141.074219 227.835938 L 112.679688 227.835938 Z M 112.679688 223.09375 " clip-rule="nonzero"/></clipPath><clipPath id="266f1ec78d"><path d="M 150 195 L 201 195 L 201 249 L 150 249 Z M 150 195 " clip-rule="nonzero"/></clipPath><clipPath id="eec3d9f23e"><path d="M 150.210938 195.117188 L 155.582031 195.117188 L 175.179688 234.71875 L 194.847656 195.117188 L 200.273438 195.117188 L 200.273438 248.613281 L 194.90625 248.613281 L 194.90625 204.1875 L 176.753906 240.96875 L 173.59375 240.96875 L 155.582031 204.246094 L 155.582031 248.59375 L 150.210938 248.59375 Z M 150.210938 195.117188 " clip-rule="nonzero"/></clipPath><clipPath id="e777546db5"><path d="M 209 210 L 242 210 L 242 249 L 209 249 Z M 209 210 " clip-rule="nonzero"/></clipPath><clipPath id="446f4af120"><path d="M 218.496094 210.375 L 233.417969 210.375 C 235.527344 210.375 237.328125 211.121094 238.816406 212.613281 C 240.300781 214.101562 241.054688 215.921875 241.054688 218.082031 L 241.054688 248.613281 L 236.03125 248.613281 L 236.03125 242.355469 C 235.25 244.273438 233.984375 245.800781 232.21875 246.929688 C 230.457031 248.046875 228.476562 248.613281 226.269531 248.613281 L 216.988281 248.613281 C 214.832031 248.613281 213.027344 247.878906 211.550781 246.414062 C 210.085938 244.949219 209.355469 243.136719 209.355469 240.976562 L 209.355469 233.34375 C 209.355469 231.234375 210.085938 229.429688 211.550781 227.945312 C 213.019531 226.460938 214.832031 225.707031 216.988281 225.707031 L 236.03125 225.707031 L 236.03125 219.449219 C 236.03125 218.300781 235.617188 217.300781 234.792969 216.425781 C 233.972656 215.554688 232.984375 215.121094 231.832031 215.121094 L 220.007812 215.121094 C 218.859375 215.121094 217.878906 215.554688 217.046875 216.425781 C 216.226562 217.300781 215.8125 218.308594 215.8125 219.449219 L 215.8125 220.6875 L 210.859375 220.6875 L 210.859375 218.070312 C 210.859375 215.960938 211.601562 214.148438 213.097656 212.644531 C 214.582031 211.128906 216.386719 210.375 218.496094 210.375 Z M 236.023438 230.242188 L 218.484375 230.242188 C 217.335938 230.242188 216.355469 230.660156 215.523438 231.480469 C 214.691406 232.300781 214.285156 233.292969 214.285156 234.441406 L 214.285156 239.601562 C 214.285156 240.75 214.703125 241.75 215.523438 242.589844 C 216.34375 243.441406 217.335938 243.859375 218.484375 243.859375 L 227.625 243.859375 C 229.914062 243.859375 231.882812 243.035156 233.535156 241.382812 C 235.191406 239.730469 236.011719 237.757812 236.011719 235.472656 L 236.011719 230.242188 Z M 236.023438 230.242188 " clip-rule="nonzero"/></clipPath><clipPath id="ce8691fbec"><path d="M 251 195 L 270 195 L 270 249 L 251 249 Z M 251 195 " clip-rule="nonzero"/></clipPath><clipPath id="08459eabcd"><path d="M 251.976562 195.589844 L 256.996094 195.589844 L 256.996094 210.375 L 269.921875 210.375 L 269.921875 215.121094 L 256.996094 215.121094 L 256.996094 239.601562 C 256.996094 240.75 257.414062 241.75 258.234375 242.589844 C 259.058594 243.441406 260.046875 243.859375 261.195312 243.859375 L 269.929688 243.859375 L 269.929688 248.601562 L 259.621094 248.601562 C 257.511719 248.601562 255.710938 247.871094 254.222656 246.402344 C 252.738281 244.9375 251.984375 243.125 251.984375 240.96875 L 251.984375 195.589844 Z M 251.976562 195.589844 " clip-rule="nonzero"/></clipPath><clipPath id="d0032a9183"><path d="M 276 210 L 298 210 L 298 249 L 276 249 Z M 276 210 " clip-rule="nonzero"/></clipPath><clipPath id="88e4d84321"><path d="M 276.179688 210.375 L 281.132812 210.375 L 281.132812 216.914062 C 281.953125 214.941406 283.269531 213.359375 285.082031 212.167969 C 286.894531 210.980469 288.824219 210.386719 290.894531 210.386719 L 297.015625 210.386719 L 297.015625 215.128906 L 289.519531 215.128906 C 287.222656 215.128906 285.261719 215.972656 283.605469 217.636719 C 281.953125 219.308594 281.132812 221.289062 281.132812 223.585938 L 281.132812 248.613281 L 276.179688 248.613281 Z M 276.179688 210.375 " clip-rule="nonzero"/></clipPath><clipPath id="f9c78e4d0e"><path d="M 302.441406 195.117188 L 308.5625 195.117188 L 308.5625 200.34375 L 302.441406 200.34375 Z M 302.988281 210.375 L 307.9375 210.375 L 307.9375 248.601562 L 302.988281 248.601562 Z M 302.988281 210.375 " clip-rule="nonzero"/></clipPath><clipPath id="605fce146a"><path d="M 294 210 L 349 210 L 349 282 L 294 282 Z M 294 210 " clip-rule="nonzero"/></clipPath><clipPath id="41954e05ce"><path d="M 313.988281 210.375 L 319.96875 210.375 L 331.390625 226.46875 L 342.738281 210.375 L 348.789062 210.375 L 334.558594 229.488281 L 348.789062 248.601562 L 342.738281 248.601562 L 331.390625 232.578125 L 300.007812 281.195312 L 294.023438 281.195312 L 328.230469 229.480469 L 314 210.367188 Z M 313.988281 210.375 " clip-rule="nonzero"/></clipPath><clipPath id="6ee905b687"><path d="M 349.027344 195.492188 L 350.433594 195.492188 L 350.433594 204.484375 L 349.027344 204.484375 Z M 349.027344 204.484375 L 356.710938 204.484375 L 356.710938 205.839844 L 349.027344 205.839844 Z M 349.027344 204.484375 " clip-rule="nonzero"/></clipPath><clipPath id="0bb9c8fa46"><path d="M 357 198 L 364 198 L 364 206 L 357 206 Z M 357 198 " clip-rule="nonzero"/></clipPath><clipPath id="bebf18ed14"><path d="M 359.1875 198.445312 L 362.324219 198.445312 C 362.742188 198.445312 363.097656 198.59375 363.386719 198.878906 C 363.671875 199.175781 363.820312 199.523438 363.820312 199.929688 L 363.820312 205.832031 L 362.515625 205.832031 L 362.515625 204.664062 C 362.367188 205.019531 362.128906 205.296875 361.8125 205.515625 C 361.492188 205.722656 361.128906 205.832031 360.722656 205.832031 L 358.898438 205.832031 C 358.484375 205.832031 358.136719 205.691406 357.851562 205.40625 C 357.5625 205.117188 357.425781 204.773438 357.425781 204.355469 L 357.425781 202.878906 C 357.425781 202.472656 357.5625 202.128906 357.851562 201.839844 C 358.136719 201.554688 358.484375 201.40625 358.898438 201.40625 L 362.515625 201.40625 L 362.515625 200.324219 C 362.515625 200.148438 362.453125 200 362.324219 199.871094 C 362.195312 199.742188 362.058594 199.679688 361.890625 199.679688 L 359.640625 199.679688 C 359.472656 199.679688 359.324219 199.75 359.195312 199.871094 C 359.066406 200 359.007812 200.148438 359.007812 200.324219 L 359.007812 200.621094 L 357.722656 200.621094 L 357.722656 199.929688 C 357.722656 199.523438 357.871094 199.167969 358.15625 198.878906 C 358.445312 198.59375 358.789062 198.445312 359.195312 198.445312 Z M 362.515625 202.59375 L 359.335938 202.59375 C 359.15625 202.59375 359.007812 202.652344 358.890625 202.78125 C 358.769531 202.910156 358.710938 203.046875 358.710938 203.21875 L 358.710938 203.960938 C 358.710938 204.136719 358.769531 204.285156 358.898438 204.414062 C 359.027344 204.542969 359.167969 204.601562 359.335938 204.601562 L 361.117188 204.601562 C 361.503906 204.601562 361.832031 204.464844 362.097656 204.1875 C 362.375 203.910156 362.515625 203.582031 362.515625 203.1875 L 362.515625 202.574219 Z M 362.515625 202.59375 " clip-rule="nonzero"/></clipPath><clipPath id="bca7a65100"><path d="M 365 195 L 373 195 L 373 206 L 365 206 Z M 365 195 " clip-rule="nonzero"/></clipPath><clipPath id="691b098593"><path d="M 365.722656 195.492188 L 367.011719 195.492188 L 367.011719 199.613281 C 367.160156 199.253906 367.394531 198.976562 367.734375 198.761719 C 368.058594 198.550781 368.417969 198.445312 368.800781 198.445312 L 370.65625 198.445312 C 371.058594 198.445312 371.40625 198.59375 371.695312 198.878906 C 371.980469 199.167969 372.128906 199.523438 372.128906 199.9375 L 372.128906 204.367188 C 372.128906 204.78125 371.980469 205.128906 371.695312 205.414062 C 371.40625 205.703125 371.058594 205.839844 370.65625 205.839844 L 368.800781 205.839844 C 368.417969 205.839844 368.058594 205.730469 367.734375 205.503906 C 367.40625 205.285156 367.167969 204.988281 367.019531 204.644531 L 367.019531 205.839844 L 365.734375 205.839844 L 365.734375 195.492188 Z M 368.417969 199.679688 C 368.03125 199.679688 367.695312 199.820312 367.417969 200.097656 C 367.140625 200.375 367 200.703125 367 201.078125 L 367 203.136719 C 367 203.523438 367.140625 203.871094 367.417969 204.167969 C 367.695312 204.464844 368.03125 204.613281 368.40625 204.613281 L 370.179688 204.613281 C 370.347656 204.613281 370.496094 204.554688 370.625 204.425781 C 370.753906 204.296875 370.8125 204.148438 370.8125 203.96875 L 370.8125 200.335938 C 370.8125 200.15625 370.753906 200.007812 370.625 199.878906 C 370.496094 199.75 370.347656 199.691406 370.179688 199.691406 L 368.40625 199.691406 Z M 368.417969 199.679688 " clip-rule="nonzero"/></clipPath><clipPath id="829202a16f"><path d="M 103 270 L 111 270 L 111 282 L 103 282 Z M 103 270 " clip-rule="nonzero"/></clipPath><clipPath id="a4b5611211"><path d="M 103.570312 270.300781 L 105.738281 270.300781 C 106.945312 270.300781 107.769531 270.351562 108.195312 270.449219 C 108.839844 270.597656 109.363281 270.914062 109.769531 271.398438 C 110.175781 271.882812 110.371094 272.488281 110.371094 273.203125 C 110.371094 273.796875 110.234375 274.320312 109.957031 274.765625 C 109.679688 275.210938 109.285156 275.558594 108.757812 275.785156 C 108.242188 276.015625 107.519531 276.132812 106.609375 276.144531 L 110.53125 281.203125 L 109.183594 281.203125 L 105.261719 276.144531 L 104.648438 276.144531 L 104.648438 281.203125 L 103.558594 281.203125 L 103.558594 270.308594 Z M 104.660156 271.371094 L 104.660156 275.074219 L 106.539062 275.074219 C 107.261719 275.082031 107.808594 275.023438 108.15625 274.886719 C 108.5 274.746094 108.777344 274.527344 108.964844 274.222656 C 109.15625 273.914062 109.265625 273.578125 109.265625 273.203125 C 109.265625 272.824219 109.164062 272.507812 108.964844 272.203125 C 108.769531 271.90625 108.511719 271.6875 108.183594 271.558594 C 107.867188 271.429688 107.332031 271.371094 106.582031 271.371094 Z M 104.660156 271.371094 " clip-rule="nonzero"/></clipPath><clipPath id="1878833704"><path d="M 112 272 L 121 272 L 121 282 L 112 282 Z M 112 272 " clip-rule="nonzero"/></clipPath><clipPath id="6746fe9773"><path d="M 119.335938 278.53125 L 120.207031 278.984375 C 119.917969 279.550781 119.59375 280.003906 119.214844 280.351562 C 118.839844 280.699219 118.414062 280.964844 117.949219 281.144531 C 117.484375 281.320312 116.949219 281.410156 116.355469 281.410156 C 115.039062 281.410156 114.007812 280.984375 113.273438 280.125 C 112.542969 279.261719 112.164062 278.292969 112.164062 277.203125 C 112.164062 276.183594 112.480469 275.269531 113.105469 274.46875 C 113.898438 273.449219 114.96875 272.945312 116.304688 272.945312 C 117.640625 272.945312 118.78125 273.46875 119.59375 274.507812 C 120.175781 275.242188 120.472656 276.164062 120.484375 277.261719 L 113.234375 277.261719 C 113.253906 278.191406 113.550781 278.964844 114.136719 279.558594 C 114.710938 280.152344 115.433594 280.460938 116.273438 280.460938 C 116.679688 280.460938 117.085938 280.390625 117.472656 280.242188 C 117.859375 280.105469 118.1875 279.914062 118.464844 279.679688 C 118.742188 279.441406 119.027344 279.0625 119.34375 278.53125 Z M 119.335938 276.359375 C 119.195312 275.804688 119 275.371094 118.730469 275.035156 C 118.464844 274.707031 118.117188 274.441406 117.679688 274.230469 C 117.246094 274.035156 116.789062 273.925781 116.304688 273.925781 C 115.511719 273.925781 114.828125 274.183594 114.265625 274.6875 C 113.847656 275.054688 113.53125 275.617188 113.324219 276.351562 L 119.335938 276.351562 Z M 119.335938 276.359375 " clip-rule="nonzero"/></clipPath><clipPath id="dfc31477a4"><path d="M 121 272 L 127 272 L 127 282 L 121 282 Z M 121 272 " clip-rule="nonzero"/></clipPath><clipPath id="38e52fd4c4"><path d="M 126.464844 274.023438 L 125.800781 274.71875 C 125.246094 274.183594 124.703125 273.90625 124.179688 273.90625 C 123.839844 273.90625 123.554688 274.015625 123.316406 274.242188 C 123.078125 274.460938 122.960938 274.726562 122.960938 275.023438 C 122.960938 275.28125 123.058594 275.539062 123.257812 275.777344 C 123.453125 276.015625 123.871094 276.300781 124.503906 276.628906 C 125.277344 277.023438 125.800781 277.410156 126.078125 277.785156 C 126.355469 278.164062 126.484375 278.578125 126.484375 279.054688 C 126.484375 279.71875 126.257812 280.273438 125.792969 280.738281 C 125.328125 281.203125 124.742188 281.429688 124.050781 281.429688 C 123.582031 281.429688 123.136719 281.332031 122.722656 281.125 C 122.296875 280.925781 121.949219 280.640625 121.671875 280.292969 L 122.324219 279.550781 C 122.859375 280.144531 123.414062 280.449219 124.007812 280.449219 C 124.425781 280.449219 124.78125 280.320312 125.070312 280.054688 C 125.355469 279.789062 125.503906 279.46875 125.503906 279.113281 C 125.503906 278.816406 125.40625 278.550781 125.21875 278.320312 C 125.03125 278.09375 124.59375 277.808594 123.910156 277.460938 C 123.1875 277.082031 122.691406 276.71875 122.425781 276.351562 C 122.167969 275.984375 122.027344 275.570312 122.027344 275.101562 C 122.027344 274.488281 122.238281 273.984375 122.652344 273.578125 C 123.070312 273.171875 123.601562 272.972656 124.238281 272.972656 C 124.980469 272.972656 125.722656 273.339844 126.476562 274.0625 Z M 126.464844 274.023438 " clip-rule="nonzero"/></clipPath><clipPath id="06e37b04f1"><path d="M 127 272 L 137 272 L 137 282 L 127 282 Z M 127 272 " clip-rule="nonzero"/></clipPath><clipPath id="321c035369"><path d="M 135.082031 278.53125 L 135.953125 278.984375 C 135.664062 279.550781 135.339844 280.003906 134.960938 280.351562 C 134.585938 280.699219 134.160156 280.964844 133.695312 281.144531 C 133.230469 281.320312 132.695312 281.410156 132.101562 281.410156 C 130.78125 281.410156 129.753906 280.984375 129.019531 280.125 C 128.289062 279.261719 127.910156 278.292969 127.910156 277.203125 C 127.910156 276.183594 128.226562 275.269531 128.851562 274.46875 C 129.644531 273.449219 130.714844 272.945312 132.050781 272.945312 C 133.386719 272.945312 134.527344 273.46875 135.339844 274.507812 C 135.921875 275.242188 136.21875 276.164062 136.230469 277.261719 L 128.980469 277.261719 C 129 278.191406 129.296875 278.964844 129.882812 279.558594 C 130.464844 280.152344 131.179688 280.460938 132.019531 280.460938 C 132.425781 280.460938 132.832031 280.390625 133.21875 280.242188 C 133.605469 280.105469 133.933594 279.914062 134.210938 279.679688 C 134.488281 279.441406 134.773438 279.0625 135.089844 278.53125 Z M 135.082031 276.359375 C 134.941406 275.804688 134.746094 275.371094 134.476562 275.035156 C 134.210938 274.707031 133.863281 274.441406 133.425781 274.230469 C 132.992188 274.035156 132.535156 273.925781 132.050781 273.925781 C 131.257812 273.925781 130.574219 274.183594 130.011719 274.6875 C 129.59375 275.054688 129.277344 275.617188 129.070312 276.351562 L 135.082031 276.351562 Z M 135.082031 276.359375 " clip-rule="nonzero"/></clipPath><clipPath id="a15351300d"><path d="M 137 272 L 147 272 L 147 282 L 137 282 Z M 137 272 " clip-rule="nonzero"/></clipPath><clipPath id="a1529101fa"><path d="M 146.191406 273.140625 L 146.191406 281.203125 L 145.171875 281.203125 L 145.171875 279.816406 C 144.738281 280.34375 144.25 280.738281 143.707031 281.003906 C 143.160156 281.273438 142.578125 281.402344 141.933594 281.402344 C 140.796875 281.402344 139.816406 280.984375 139.011719 280.164062 C 138.199219 279.332031 137.804688 278.332031 137.804688 277.144531 C 137.804688 275.953125 138.210938 274.996094 139.023438 274.164062 C 139.835938 273.339844 140.816406 272.925781 141.964844 272.925781 C 142.628906 272.925781 143.222656 273.0625 143.757812 273.351562 C 144.289062 273.628906 144.765625 274.054688 145.164062 274.617188 L 145.164062 273.132812 L 146.183594 273.132812 Z M 142.042969 273.933594 C 141.46875 273.933594 140.933594 274.074219 140.449219 274.359375 C 139.964844 274.648438 139.566406 275.042969 139.28125 275.558594 C 138.992188 276.074219 138.84375 276.617188 138.84375 277.183594 C 138.84375 277.746094 138.992188 278.292969 139.28125 278.808594 C 139.566406 279.320312 139.964844 279.726562 140.449219 280.015625 C 140.945312 280.300781 141.46875 280.449219 142.03125 280.449219 C 142.597656 280.449219 143.140625 280.3125 143.648438 280.023438 C 144.152344 279.738281 144.546875 279.351562 144.816406 278.867188 C 145.09375 278.382812 145.230469 277.828125 145.230469 277.210938 C 145.230469 276.28125 144.925781 275.5 144.3125 274.875 C 143.695312 274.25 142.945312 273.933594 142.042969 273.933594 Z M 142.042969 273.933594 " clip-rule="nonzero"/></clipPath><clipPath id="ea83cb4def"><path d="M 148 272 L 153 272 L 153 282 L 148 282 Z M 148 272 " clip-rule="nonzero"/></clipPath><clipPath id="dfd392e463"><path d="M 148.132812 273.140625 L 149.191406 273.140625 L 149.191406 274.320312 C 149.507812 273.855469 149.847656 273.507812 150.191406 273.28125 C 150.539062 273.054688 150.90625 272.933594 151.292969 272.933594 C 151.578125 272.933594 151.886719 273.023438 152.214844 273.210938 L 151.667969 274.082031 C 151.449219 273.992188 151.273438 273.945312 151.125 273.945312 C 150.777344 273.945312 150.441406 274.082031 150.125 274.371094 C 149.808594 274.65625 149.558594 275.09375 149.390625 275.6875 C 149.261719 276.144531 149.203125 277.074219 149.203125 278.46875 L 149.203125 281.195312 L 148.144531 281.195312 L 148.144531 273.132812 Z M 148.132812 273.140625 " clip-rule="nonzero"/></clipPath><clipPath id="b41ad480ec"><path d="M 152 272 L 161 272 L 161 282 L 152 282 Z M 152 272 " clip-rule="nonzero"/></clipPath><clipPath id="30c24243b9"><path d="M 160.90625 274.816406 L 160.085938 275.332031 C 159.375 274.390625 158.402344 273.914062 157.175781 273.914062 C 156.195312 273.914062 155.382812 274.230469 154.730469 274.867188 C 154.074219 275.5 153.757812 276.261719 153.757812 277.164062 C 153.757812 277.746094 153.90625 278.300781 154.203125 278.816406 C 154.5 279.332031 154.90625 279.738281 155.433594 280.023438 C 155.957031 280.3125 156.53125 280.449219 157.183594 280.449219 C 158.371094 280.449219 159.332031 279.976562 160.085938 279.035156 L 160.90625 279.578125 C 160.523438 280.152344 160.007812 280.609375 159.351562 280.925781 C 158.699219 281.242188 157.96875 281.402344 157.136719 281.402344 C 155.859375 281.402344 154.808594 280.996094 153.964844 280.183594 C 153.125 279.371094 152.707031 278.390625 152.707031 277.230469 C 152.707031 276.449219 152.90625 275.726562 153.292969 275.054688 C 153.679688 274.378906 154.222656 273.867188 154.90625 273.488281 C 155.589844 273.113281 156.363281 272.925781 157.214844 272.925781 C 157.75 272.925781 158.265625 273.003906 158.757812 273.171875 C 159.253906 273.332031 159.679688 273.546875 160.027344 273.804688 C 160.375 274.0625 160.671875 274.398438 160.90625 274.804688 Z M 160.90625 274.816406 " clip-rule="nonzero"/></clipPath><clipPath id="bb83d555f2"><path d="M 162 270 L 170 270 L 170 282 L 162 282 Z M 162 270 " clip-rule="nonzero"/></clipPath><clipPath id="fd56d09d9f"><path d="M 162.898438 270.03125 L 163.9375 270.03125 L 163.9375 274.589844 C 164.355469 274.035156 164.820312 273.617188 165.324219 273.351562 C 165.828125 273.074219 166.375 272.933594 166.957031 272.933594 C 167.542969 272.933594 168.097656 273.082031 168.5625 273.390625 C 169.027344 273.695312 169.375 274.101562 169.59375 274.628906 C 169.8125 275.144531 169.929688 275.953125 169.929688 277.054688 L 169.929688 281.203125 L 168.890625 281.203125 L 168.890625 277.359375 C 168.890625 276.429688 168.851562 275.816406 168.78125 275.5 C 168.652344 274.964844 168.414062 274.566406 168.078125 274.300781 C 167.742188 274.035156 167.296875 273.894531 166.75 273.894531 C 166.128906 273.894531 165.5625 274.101562 165.066406 274.519531 C 164.570312 274.933594 164.246094 275.449219 164.085938 276.0625 C 163.988281 276.460938 163.9375 277.191406 163.9375 278.253906 L 163.9375 281.203125 L 162.898438 281.203125 Z M 162.898438 270.03125 " clip-rule="nonzero"/></clipPath><clipPath id="e1b17965aa"><path d="M 176 270 L 187 270 L 187 282 L 176 282 Z M 176 270 " clip-rule="nonzero"/></clipPath><clipPath id="2b76865a00"><path d="M 184.765625 277.171875 L 185.507812 277.957031 C 185.03125 278.371094 184.585938 278.738281 184.160156 279.042969 C 184.457031 279.320312 184.84375 279.6875 185.320312 280.164062 C 185.695312 280.539062 186.023438 280.886719 186.289062 281.203125 L 184.773438 281.203125 L 183.328125 279.71875 C 182.417969 280.449219 181.683594 280.925781 181.109375 281.144531 C 180.535156 281.363281 179.941406 281.480469 179.308594 281.480469 C 178.464844 281.480469 177.792969 281.242188 177.289062 280.757812 C 176.78125 280.273438 176.523438 279.679688 176.523438 278.957031 C 176.523438 278.410156 176.695312 277.867188 177.039062 277.320312 C 177.386719 276.777344 178.078125 276.082031 179.140625 275.25 C 178.546875 274.527344 178.160156 273.992188 177.992188 273.65625 C 177.824219 273.3125 177.734375 272.984375 177.734375 272.675781 C 177.734375 272.132812 177.941406 271.6875 178.367188 271.328125 C 178.851562 270.914062 179.457031 270.707031 180.179688 270.707031 C 180.636719 270.707031 181.050781 270.796875 181.425781 270.984375 C 181.804688 271.171875 182.089844 271.410156 182.289062 271.714844 C 182.488281 272.023438 182.585938 272.351562 182.585938 272.695312 C 182.585938 273.0625 182.457031 273.449219 182.199219 273.867188 C 181.941406 274.28125 181.4375 274.804688 180.675781 275.449219 L 182.328125 277.183594 L 183.40625 278.28125 C 183.992188 277.855469 184.449219 277.488281 184.785156 277.183594 Z M 179.851562 276.0625 C 178.933594 276.757812 178.316406 277.3125 178.03125 277.726562 C 177.742188 278.144531 177.59375 278.519531 177.59375 278.875 C 177.59375 279.292969 177.773438 279.660156 178.121094 279.976562 C 178.464844 280.292969 178.902344 280.449219 179.40625 280.449219 C 179.792969 280.449219 180.167969 280.371094 180.546875 280.214844 C 181.128906 279.964844 181.792969 279.53125 182.554688 278.9375 L 180.832031 277.164062 C 180.535156 276.855469 180.210938 276.488281 179.84375 276.0625 Z M 179.992188 274.617188 C 180.515625 274.210938 180.921875 273.804688 181.191406 273.410156 C 181.378906 273.132812 181.476562 272.875 181.476562 272.65625 C 181.476562 272.410156 181.359375 272.191406 181.109375 272.003906 C 180.863281 271.824219 180.535156 271.726562 180.128906 271.726562 C 179.722656 271.726562 179.425781 271.816406 179.1875 272.003906 C 178.953125 272.191406 178.824219 272.410156 178.824219 272.667969 C 178.824219 272.863281 178.871094 273.054688 178.972656 273.222656 C 179.21875 273.636719 179.554688 274.101562 180 274.597656 Z M 179.992188 274.617188 " clip-rule="nonzero"/></clipPath><clipPath id="7ed5fea9e2"><path d="M 192 270 L 202 270 L 202 282 L 192 282 Z M 192 270 " clip-rule="nonzero"/></clipPath><clipPath id="506a67b6b1"><path d="M 192.203125 281.203125 L 192.203125 270.308594 L 194.460938 270.308594 C 196.09375 270.308594 197.273438 270.4375 198.003906 270.707031 C 199.066406 271.074219 199.886719 271.714844 200.480469 272.628906 C 201.074219 273.539062 201.371094 274.628906 201.371094 275.894531 C 201.371094 276.984375 201.132812 277.945312 200.667969 278.777344 C 200.195312 279.609375 199.589844 280.222656 198.828125 280.609375 C 198.074219 281.003906 197.015625 281.203125 195.65625 281.203125 L 192.191406 281.203125 Z M 193.25 280.171875 L 194.507812 280.171875 C 196.015625 280.171875 197.0625 280.085938 197.636719 279.894531 C 198.460938 279.628906 199.105469 279.152344 199.570312 278.460938 C 200.035156 277.765625 200.273438 276.914062 200.273438 275.914062 C 200.273438 274.914062 200.015625 273.964844 199.511719 273.222656 C 199.003906 272.480469 198.292969 271.964844 197.382812 271.6875 C 196.699219 271.480469 195.578125 271.378906 194.015625 271.378906 L 193.242188 271.378906 L 193.242188 280.183594 Z M 193.25 280.171875 " clip-rule="nonzero"/></clipPath><clipPath id="9fa6264e06"><path d="M 202 272 L 212 272 L 212 282 L 202 282 Z M 202 272 " clip-rule="nonzero"/></clipPath><clipPath id="6d523ba23c"><path d="M 210.105469 278.53125 L 210.976562 278.984375 C 210.691406 279.550781 210.363281 280.003906 209.988281 280.351562 C 209.609375 280.699219 209.183594 280.964844 208.71875 281.144531 C 208.253906 281.320312 207.71875 281.410156 207.125 281.410156 C 205.808594 281.410156 204.777344 280.984375 204.046875 280.125 C 203.3125 279.261719 202.9375 278.292969 202.9375 277.203125 C 202.9375 276.183594 203.253906 275.269531 203.878906 274.46875 C 204.667969 273.449219 205.738281 272.945312 207.074219 272.945312 C 208.414062 272.945312 209.550781 273.46875 210.363281 274.507812 C 210.949219 275.242188 211.246094 276.164062 211.253906 277.261719 L 204.007812 277.261719 C 204.027344 278.191406 204.324219 278.964844 204.90625 279.558594 C 205.492188 280.152344 206.203125 280.460938 207.046875 280.460938 C 207.453125 280.460938 207.859375 280.390625 208.246094 280.242188 C 208.632812 280.105469 208.957031 279.914062 209.234375 279.679688 C 209.511719 279.441406 209.800781 279.0625 210.117188 278.53125 Z M 210.105469 276.359375 C 209.96875 275.804688 209.769531 275.371094 209.503906 275.035156 C 209.234375 274.707031 208.886719 274.441406 208.453125 274.230469 C 208.015625 274.035156 207.5625 273.925781 207.074219 273.925781 C 206.285156 273.925781 205.601562 274.183594 205.035156 274.6875 C 204.621094 275.054688 204.304688 275.617188 204.09375 276.351562 L 210.105469 276.351562 Z M 210.105469 276.359375 " clip-rule="nonzero"/></clipPath><clipPath id="776de421bb"><path d="M 212 273 L 221 273 L 221 282 L 212 282 Z M 212 273 " clip-rule="nonzero"/></clipPath><clipPath id="8c05b7bae5"><path d="M 212.421875 273.140625 L 213.523438 273.140625 L 216.226562 279.015625 L 218.898438 273.140625 L 220.007812 273.140625 L 216.316406 281.203125 L 216.128906 281.203125 L 212.414062 273.140625 Z M 212.421875 273.140625 " clip-rule="nonzero"/></clipPath><clipPath id="5413430d89"><path d="M 221 272 L 230 272 L 230 282 L 221 282 Z M 221 272 " clip-rule="nonzero"/></clipPath><clipPath id="d05b5fe9aa"><path d="M 228.378906 278.53125 L 229.25 278.984375 C 228.960938 279.550781 228.636719 280.003906 228.257812 280.351562 C 227.882812 280.699219 227.457031 280.964844 226.992188 281.144531 C 226.527344 281.320312 225.992188 281.410156 225.398438 281.410156 C 224.078125 281.410156 223.050781 280.984375 222.316406 280.125 C 221.585938 279.261719 221.207031 278.292969 221.207031 277.203125 C 221.207031 276.183594 221.523438 275.269531 222.148438 274.46875 C 222.941406 273.449219 224.011719 272.945312 225.347656 272.945312 C 226.683594 272.945312 227.824219 273.46875 228.636719 274.507812 C 229.21875 275.242188 229.515625 276.164062 229.527344 277.261719 L 222.277344 277.261719 C 222.296875 278.191406 222.59375 278.964844 223.179688 279.558594 C 223.761719 280.152344 224.476562 280.460938 225.316406 280.460938 C 225.722656 280.460938 226.128906 280.390625 226.515625 280.242188 C 226.902344 280.105469 227.230469 279.914062 227.507812 279.679688 C 227.785156 279.441406 228.070312 279.0625 228.386719 278.53125 Z M 228.378906 276.359375 C 228.238281 275.804688 228.039062 275.371094 227.773438 275.035156 C 227.507812 274.707031 227.160156 274.441406 226.722656 274.230469 C 226.289062 274.035156 225.832031 273.925781 225.347656 273.925781 C 224.554688 273.925781 223.871094 274.183594 223.308594 274.6875 C 222.890625 275.054688 222.574219 275.617188 222.367188 276.351562 L 228.378906 276.351562 Z M 228.378906 276.359375 " clip-rule="nonzero"/></clipPath><clipPath id="3ef1f9536a"><path d="M 231.289062 270.03125 L 232.328125 270.03125 L 232.328125 281.203125 L 231.289062 281.203125 Z M 231.289062 270.03125 " clip-rule="nonzero"/></clipPath><clipPath id="a559b69aa2"><path d="M 234 272 L 243 272 L 243 282 L 234 282 Z M 234 272 " clip-rule="nonzero"/></clipPath><clipPath id="e7a2304718"><path d="M 238.300781 272.933594 C 239.539062 272.933594 240.566406 273.378906 241.390625 274.28125 C 242.132812 275.101562 242.5 276.074219 242.5 277.191406 C 242.5 278.3125 242.101562 279.300781 241.320312 280.144531 C 240.539062 280.984375 239.527344 281.402344 238.300781 281.402344 C 237.074219 281.402344 236.050781 280.984375 235.269531 280.144531 C 234.488281 279.300781 234.089844 278.320312 234.089844 277.191406 C 234.089844 276.0625 234.457031 275.113281 235.199219 274.292969 C 236.011719 273.390625 237.050781 272.933594 238.289062 272.933594 Z M 238.300781 273.945312 C 237.4375 273.945312 236.695312 274.261719 236.070312 274.894531 C 235.457031 275.527344 235.140625 276.300781 235.140625 277.203125 C 235.140625 277.785156 235.28125 278.332031 235.566406 278.835938 C 235.855469 279.339844 236.230469 279.726562 236.714844 280.003906 C 237.199219 280.28125 237.726562 280.421875 238.300781 280.421875 C 238.875 280.421875 239.398438 280.28125 239.886719 280.003906 C 240.371094 279.726562 240.746094 279.339844 241.035156 278.835938 C 241.320312 278.332031 241.460938 277.785156 241.460938 277.203125 C 241.460938 276.300781 241.152344 275.527344 240.527344 274.894531 C 239.90625 274.261719 239.160156 273.945312 238.308594 273.945312 Z M 238.300781 273.945312 " clip-rule="nonzero"/></clipPath><clipPath id="b8c149291a"><path d="M 244 272 L 253 272 L 253 284.238281 L 244 284.238281 Z M 244 272 " clip-rule="nonzero"/></clipPath><clipPath id="530d60efdb"><path d="M 244.429688 273.140625 L 245.46875 273.140625 L 245.46875 274.628906 C 245.875 274.0625 246.351562 273.648438 246.886719 273.359375 C 247.421875 273.074219 248.015625 272.933594 248.667969 272.933594 C 249.816406 272.933594 250.789062 273.351562 251.609375 274.171875 C 252.421875 274.996094 252.828125 275.984375 252.828125 277.152344 C 252.828125 278.320312 252.421875 279.339844 251.621094 280.171875 C 250.816406 280.996094 249.835938 281.410156 248.699219 281.410156 C 248.054688 281.410156 247.46875 281.28125 246.925781 281.015625 C 246.382812 280.746094 245.90625 280.351562 245.46875 279.828125 L 245.46875 284.164062 L 244.429688 284.164062 Z M 248.578125 273.933594 C 247.679688 273.933594 246.925781 274.25 246.3125 274.875 C 245.699219 275.5 245.390625 276.28125 245.390625 277.210938 C 245.390625 277.828125 245.53125 278.371094 245.796875 278.867188 C 246.074219 279.351562 246.460938 279.738281 246.976562 280.023438 C 247.480469 280.3125 248.023438 280.449219 248.589844 280.449219 C 249.152344 280.449219 249.667969 280.300781 250.164062 280.015625 C 250.660156 279.726562 251.046875 279.320312 251.332031 278.808594 C 251.621094 278.292969 251.769531 277.746094 251.769531 277.183594 C 251.769531 276.617188 251.621094 276.0625 251.332031 275.558594 C 251.046875 275.042969 250.660156 274.648438 250.164062 274.359375 C 249.667969 274.074219 249.144531 273.933594 248.570312 273.933594 Z M 248.578125 273.933594 " clip-rule="nonzero"/></clipPath><clipPath id="773957fcc5"><path d="M 254 272 L 267 272 L 267 282 L 254 282 Z M 254 272 " clip-rule="nonzero"/></clipPath><clipPath id="ae9661fefa"><path d="M 254.757812 273.140625 L 255.800781 273.140625 L 255.800781 274.539062 C 256.15625 274.023438 256.53125 273.648438 256.90625 273.410156 C 257.433594 273.09375 257.988281 272.933594 258.5625 272.933594 C 258.949219 272.933594 259.324219 273.011719 259.671875 273.164062 C 260.019531 273.320312 260.304688 273.519531 260.53125 273.777344 C 260.761719 274.035156 260.949219 274.390625 261.105469 274.867188 C 261.453125 274.230469 261.878906 273.757812 262.402344 273.417969 C 262.917969 273.09375 263.472656 272.925781 264.078125 272.925781 C 264.632812 272.925781 265.128906 273.0625 265.554688 273.351562 C 265.980469 273.628906 266.296875 274.023438 266.503906 274.527344 C 266.710938 275.035156 266.8125 275.785156 266.8125 276.796875 L 266.8125 281.195312 L 265.75 281.195312 L 265.75 276.796875 C 265.75 275.933594 265.691406 275.339844 265.5625 275.015625 C 265.445312 274.6875 265.226562 274.429688 264.929688 274.230469 C 264.632812 274.035156 264.277344 273.933594 263.859375 273.933594 C 263.355469 273.933594 262.898438 274.082031 262.484375 274.378906 C 262.066406 274.675781 261.761719 275.074219 261.574219 275.570312 C 261.382812 276.0625 261.285156 276.886719 261.285156 278.042969 L 261.285156 281.203125 L 260.246094 281.203125 L 260.246094 277.074219 C 260.246094 276.101562 260.1875 275.441406 260.066406 275.09375 C 259.949219 274.746094 259.730469 274.46875 259.433594 274.25 C 259.136719 274.042969 258.769531 273.933594 258.363281 273.933594 C 257.886719 273.933594 257.433594 274.082031 257.015625 274.371094 C 256.601562 274.65625 256.292969 275.042969 256.097656 275.539062 C 255.898438 276.023438 255.800781 276.777344 255.800781 277.785156 L 255.800781 281.203125 L 254.757812 281.203125 Z M 254.757812 273.140625 " clip-rule="nonzero"/></clipPath><clipPath id="7d039af228"><path d="M 268 272 L 277 272 L 277 282 L 268 282 Z M 268 272 " clip-rule="nonzero"/></clipPath><clipPath id="2b01d90615"><path d="M 275.785156 278.53125 L 276.65625 278.984375 C 276.367188 279.550781 276.039062 280.003906 275.664062 280.351562 C 275.289062 280.699219 274.863281 280.964844 274.398438 281.144531 C 273.929688 281.320312 273.398438 281.410156 272.800781 281.410156 C 271.484375 281.410156 270.457031 280.984375 269.722656 280.125 C 268.988281 279.261719 268.613281 278.292969 268.613281 277.203125 C 268.613281 276.183594 268.929688 275.269531 269.554688 274.46875 C 270.347656 273.449219 271.417969 272.945312 272.753906 272.945312 C 274.089844 272.945312 275.230469 273.46875 276.039062 274.507812 C 276.625 275.242188 276.921875 276.164062 276.933594 277.261719 L 269.683594 277.261719 C 269.703125 278.191406 270 278.964844 270.585938 279.558594 C 271.167969 280.152344 271.882812 280.460938 272.722656 280.460938 C 273.128906 280.460938 273.535156 280.390625 273.921875 280.242188 C 274.308594 280.105469 274.632812 279.914062 274.910156 279.679688 C 275.1875 279.441406 275.476562 279.0625 275.792969 278.53125 Z M 275.785156 276.359375 C 275.644531 275.804688 275.445312 275.371094 275.179688 275.035156 C 274.910156 274.707031 274.566406 274.441406 274.128906 274.230469 C 273.695312 274.035156 273.238281 273.925781 272.753906 273.925781 C 271.960938 273.925781 271.277344 274.183594 270.714844 274.6875 C 270.296875 275.054688 269.980469 275.617188 269.773438 276.351562 L 275.785156 276.351562 Z M 275.785156 276.359375 " clip-rule="nonzero"/></clipPath><clipPath id="ec48a02b57"><path d="M 278 272 L 286 272 L 286 282 L 278 282 Z M 278 272 " clip-rule="nonzero"/></clipPath><clipPath id="4bc458313c"><path d="M 278.851562 273.140625 L 279.894531 273.140625 L 279.894531 274.589844 C 280.308594 274.035156 280.765625 273.617188 281.269531 273.351562 C 281.773438 273.074219 282.320312 272.933594 282.914062 272.933594 C 283.507812 272.933594 284.050781 273.082031 284.519531 273.390625 C 284.984375 273.695312 285.328125 274.113281 285.546875 274.628906 C 285.765625 275.144531 285.882812 275.953125 285.882812 277.054688 L 285.882812 281.203125 L 284.84375 281.203125 L 284.84375 277.359375 C 284.84375 276.429688 284.804688 275.816406 284.726562 275.5 C 284.605469 274.964844 284.378906 274.566406 284.03125 274.300781 C 283.695312 274.035156 283.25 273.894531 282.695312 273.894531 C 282.070312 273.894531 281.507812 274.101562 281.011719 274.519531 C 280.515625 274.933594 280.191406 275.449219 280.03125 276.0625 C 279.933594 276.460938 279.882812 277.191406 279.882812 278.253906 L 279.882812 281.203125 L 278.84375 281.203125 L 278.84375 273.140625 Z M 278.851562 273.140625 " clip-rule="nonzero"/></clipPath><clipPath id="6b086ec5fa"><path d="M 289.015625 270.152344 L 290.054688 270.152344 L 290.054688 273.140625 L 289.015625 273.140625 Z M 287.597656 273.140625 L 291.699219 273.140625 L 291.699219 274.042969 L 287.597656 274.042969 Z M 289.015625 274.042969 L 290.054688 274.042969 L 290.054688 281.203125 L 289.015625 281.203125 Z M 289.015625 274.042969 " clip-rule="nonzero"/></clipPath><clipPath id="fd297f9656"><path d="M 106.257812 95.230469 L 268.941406 95.230469 L 268.941406 182.359375 L 106.257812 182.359375 Z M 106.257812 95.230469 " clip-rule="nonzero"/></clipPath><clipPath id="7eecc9c4c6"><path d="M 119.757812 95.230469 L 255.242188 95.230469 C 258.824219 95.230469 262.257812 96.65625 264.789062 99.1875 C 267.320312 101.71875 268.742188 105.152344 268.742188 108.730469 L 268.742188 168.859375 C 268.742188 172.441406 267.320312 175.875 264.789062 178.40625 C 262.257812 180.9375 258.824219 182.359375 255.242188 182.359375 L 119.757812 182.359375 C 116.175781 182.359375 112.742188 180.9375 110.210938 178.40625 C 107.679688 175.875 106.257812 172.441406 106.257812 168.859375 L 106.257812 108.730469 C 106.257812 105.152344 107.679688 101.71875 110.210938 99.1875 C 112.742188 96.65625 116.175781 95.230469 119.757812 95.230469 Z M 119.757812 95.230469 " clip-rule="nonzero"/></clipPath></defs><g clip-path="url(#f3f873705a)"><g clip-path="url(#a3b7ba3dfe)"><path fill="#ffffff" d="M 4.113281 195.117188 L 4.113281 248.601562 L 45.714844 248.601562 L 45.714844 195.117188 Z M 4.113281 195.117188 " fill-opacity="1" fill-rule="nonzero"/></g></g><g clip-path="url(#7b97f2f681)"><path fill="#ffffff" d="M 55.746094 195.117188 L 55.746094 248.601562 L 61.867188 248.601562 L 61.867188 195.117188 Z M 55.746094 195.117188 " fill-opacity="1" fill-rule="nonzero"/></g><g clip-path="url(#f71b69f7ed)"><g clip-path="url(#118bf77d30)"><path fill="#ffffff" d="M 71.898438 210.355469 L 71.898438 263.863281 L 103.597656 263.863281 L 103.597656 210.355469 Z M 71.898438 210.355469 " fill-opacity="1" fill-rule="nonzero"/></g></g><g clip-path="url(#46c7fda932)"><path fill="#ffffff" d="M 112.679688 223.09375 L 112.679688 227.835938 L 141.074219 227.835938 L 141.074219 223.09375 Z M 112.679688 223.09375 " fill-opacity="1" fill-rule="nonzero"/></g><g clip-path="url(#266f1ec78d)"><g clip-path="url(#eec3d9f23e)"><path fill="#ffffff" d="M 150.210938 195.117188 L 150.210938 248.613281 L 200.273438 248.613281 L 200.273438 195.117188 Z M 150.210938 195.117188 " fill-opacity="1" fill-rule="nonzero"/></g></g><g clip-path="url(#e777546db5)"><g clip-path="url(#446f4af120)"><path fill="#ffffff" d="M 209.355469 210.375 L 209.355469 248.613281 L 241.054688 248.613281 L 241.054688 210.375 Z M 209.355469 210.375 " fill-opacity="1" fill-rule="nonzero"/></g></g><g clip-path="url(#ce8691fbec)"><g clip-path="url(#08459eabcd)"><path fill="#ffffff" d="M 251.976562 195.589844 L 251.976562 248.601562 L 269.929688 248.601562 L 269.929688 195.589844 Z M 251.976562 195.589844 " fill-opacity="1" fill-rule="nonzero"/></g></g><g clip-path="url(#d0032a9183)"><g clip-path="url(#88e4d84321)"><path fill="#ffffff" d="M 276.179688 210.375 L 276.179688 248.613281 L 297.015625 248.613281 L 297.015625 210.375 Z M 276.179688 210.375 " fill-opacity="1" fill-rule="nonzero"/></g></g><g clip-path="url(#f9c78e4d0e)"><path fill="#ffffff" d="M 302.441406 195.117188 L 302.441406 248.601562 L 308.5625 248.601562 L 308.5625 195.117188 Z M 302.441406 195.117188 " fill-opacity="1" fill-rule="nonzero"/></g><g clip-path="url(#605fce146a)"><g clip-path="url(#41954e05ce)"><path fill="#ffffff" d="M 294.023438 210.367188 L 294.023438 281.195312 L 348.789062 281.195312 L 348.789062 210.367188 Z M 294.023438 210.367188 " fill-opacity="1" fill-rule="nonzero"/></g></g><g clip-path="url(#6ee905b687)"><path fill="#ffffff" d="M 349.027344 195.492188 L 349.027344 205.839844 L 356.710938 205.839844 L 356.710938 195.492188 Z M 349.027344 195.492188 " fill-opacity="1" fill-rule="nonzero"/></g><g clip-path="url(#0bb9c8fa46)"><g clip-path="url(#bebf18ed14)"><path fill="#ffffff" d="M 357.425781 198.445312 L 357.425781 205.832031 L 363.820312 205.832031 L 363.820312 198.445312 Z M 357.425781 198.445312 " fill-opacity="1" fill-rule="nonzero"/></g></g><g clip-path="url(#bca7a65100)"><g clip-path="url(#691b098593)"><path fill="#ffffff" d="M 365.722656 195.492188 L 365.722656 205.839844 L 372.128906 205.839844 L 372.128906 195.492188 Z M 365.722656 195.492188 " fill-opacity="1" fill-rule="nonzero"/></g></g><g clip-path="url(#829202a16f)"><g clip-path="url(#a4b5611211)"><path fill="#ffffff" d="M 103.558594 270.300781 L 103.558594 281.203125 L 110.53125 281.203125 L 110.53125 270.300781 Z M 103.558594 270.300781 " fill-opacity="1" fill-rule="nonzero"/></g></g><g clip-path="url(#1878833704)"><g clip-path="url(#6746fe9773)"><path fill="#ffffff" d="M 112.164062 272.945312 L 112.164062 281.410156 L 120.484375 281.410156 L 120.484375 272.945312 Z M 112.164062 272.945312 " fill-opacity="1" fill-rule="nonzero"/></g></g><g clip-path="url(#dfc31477a4)"><g clip-path="url(#38e52fd4c4)"><path fill="#ffffff" d="M 121.671875 272.972656 L 121.671875 281.429688 L 126.484375 281.429688 L 126.484375 272.972656 Z M 121.671875 272.972656 " fill-opacity="1" fill-rule="nonzero"/></g></g><g clip-path="url(#06e37b04f1)"><g clip-path="url(#321c035369)"><path fill="#ffffff" d="M 127.910156 272.945312 L 127.910156 281.410156 L 136.230469 281.410156 L 136.230469 272.945312 Z M 127.910156 272.945312 " fill-opacity="1" fill-rule="nonzero"/></g></g><g clip-path="url(#a15351300d)"><g clip-path="url(#a1529101fa)"><path fill="#ffffff" d="M 137.804688 272.925781 L 137.804688 281.402344 L 146.191406 281.402344 L 146.191406 272.925781 Z M 137.804688 272.925781 " fill-opacity="1" fill-rule="nonzero"/></g></g><g clip-path="url(#ea83cb4def)"><g clip-path="url(#dfd392e463)"><path fill="#ffffff" d="M 148.132812 272.933594 L 148.132812 281.195312 L 152.214844 281.195312 L 152.214844 272.933594 Z M 148.132812 272.933594 " fill-opacity="1" fill-rule="nonzero"/></g></g><g clip-path="url(#b41ad480ec)"><g clip-path="url(#30c24243b9)"><path fill="#ffffff" d="M 152.707031 272.925781 L 152.707031 281.402344 L 160.90625 281.402344 L 160.90625 272.925781 Z M 152.707031 272.925781 " fill-opacity="1" fill-rule="nonzero"/></g></g><g clip-path="url(#bb83d555f2)"><g clip-path="url(#fd56d09d9f)"><path fill="#ffffff" d="M 162.898438 270.03125 L 162.898438 281.203125 L 169.929688 281.203125 L 169.929688 270.03125 Z M 162.898438 270.03125 " fill-opacity="1" fill-rule="nonzero"/></g></g><g clip-path="url(#e1b17965aa)"><g clip-path="url(#2b76865a00)"><path fill="#ffffff" d="M 176.523438 270.707031 L 176.523438 281.480469 L 186.289062 281.480469 L 186.289062 270.707031 Z M 176.523438 270.707031 " fill-opacity="1" fill-rule="nonzero"/></g></g><g clip-path="url(#7ed5fea9e2)"><g clip-path="url(#506a67b6b1)"><path fill="#ffffff" d="M 192.191406 270.308594 L 192.191406 281.203125 L 201.371094 281.203125 L 201.371094 270.308594 Z M 192.191406 270.308594 " fill-opacity="1" fill-rule="nonzero"/></g></g><g clip-path="url(#9fa6264e06)"><g clip-path="url(#6d523ba23c)"><path fill="#ffffff" d="M 202.9375 272.945312 L 202.9375 281.410156 L 211.253906 281.410156 L 211.253906 272.945312 Z M 202.9375 272.945312 " fill-opacity="1" fill-rule="nonzero"/></g></g><g clip-path="url(#776de421bb)"><g clip-path="url(#8c05b7bae5)"><path fill="#ffffff" d="M 212.414062 273.140625 L 212.414062 281.203125 L 220.007812 281.203125 L 220.007812 273.140625 Z M 212.414062 273.140625 " fill-opacity="1" fill-rule="nonzero"/></g></g><g clip-path="url(#5413430d89)"><g clip-path="url(#d05b5fe9aa)"><path fill="#ffffff" d="M 221.207031 272.945312 L 221.207031 281.410156 L 229.527344 281.410156 L 229.527344 272.945312 Z M 221.207031 272.945312 " fill-opacity="1" fill-rule="nonzero"/></g></g><g clip-path="url(#3ef1f9536a)"><path fill="#ffffff" d="M 231.289062 270.03125 L 231.289062 281.203125 L 232.328125 281.203125 L 232.328125 270.03125 Z M 231.289062 270.03125 " fill-opacity="1" fill-rule="nonzero"/></g><g clip-path="url(#a559b69aa2)"><g clip-path="url(#e7a2304718)"><path fill="#ffffff" d="M 234.089844 272.933594 L 234.089844 281.402344 L 242.5 281.402344 L 242.5 272.933594 Z M 234.089844 272.933594 " fill-opacity="1" fill-rule="nonzero"/></g></g><g clip-path="url(#b8c149291a)"><g clip-path="url(#530d60efdb)"><path fill="#ffffff" d="M 244.429688 272.933594 L 244.429688 284.164062 L 252.828125 284.164062 L 252.828125 272.933594 Z M 244.429688 272.933594 " fill-opacity="1" fill-rule="nonzero"/></g></g><g clip-path="url(#773957fcc5)"><g clip-path="url(#ae9661fefa)"><path fill="#ffffff" d="M 254.757812 272.925781 L 254.757812 281.203125 L 266.8125 281.203125 L 266.8125 272.925781 Z M 254.757812 272.925781 " fill-opacity="1" fill-rule="nonzero"/></g></g><g clip-path="url(#7d039af228)"><g clip-path="url(#2b01d90615)"><path fill="#ffffff" d="M 268.613281 272.945312 L 268.613281 281.410156 L 276.933594 281.410156 L 276.933594 272.945312 Z M 268.613281 272.945312 " fill-opacity="1" fill-rule="nonzero"/></g></g><g clip-path="url(#ec48a02b57)"><g clip-path="url(#4bc458313c)"><path fill="#ffffff" d="M 278.84375 272.933594 L 278.84375 281.203125 L 285.882812 281.203125 L 285.882812 272.933594 Z M 278.84375 272.933594 " fill-opacity="1" fill-rule="nonzero"/></g></g><g clip-path="url(#6b086ec5fa)"><path fill="#ffffff" d="M 287.597656 270.152344 L 287.597656 281.203125 L 291.699219 281.203125 L 291.699219 270.152344 Z M 287.597656 270.152344 " fill-opacity="1" fill-rule="nonzero"/></g><g clip-path="url(#fd297f9656)"><g clip-path="url(#7eecc9c4c6)"><path fill="#ffffff" d="M 106.257812 95.230469 L 268.601562 95.230469 L 268.601562 182.359375 L 106.257812 182.359375 Z M 106.257812 95.230469 " fill-opacity="1" fill-rule="nonzero"/></g></g><g fill="#0d7a64" fill-opacity="1"><g transform="translate(123.846676, 162.503903)"><g><path d="M 7.53125 0 L 7.53125 -55.015625 L 32.75 -55.015625 C 35.738281 -55.015625 38.367188 -54.425781 40.640625 -53.25 C 42.910156 -52.070312 44.6875 -50.457031 45.96875 -48.40625 C 47.25 -46.351562 47.890625 -43.992188 47.890625 -41.328125 C 47.890625 -38.390625 47.207031 -36 45.84375 -34.15625 C 44.476562 -32.3125 42.546875 -30.671875 40.046875 -29.234375 C 43.191406 -27.628906 45.644531 -25.613281 47.40625 -23.1875 C 49.164062 -20.757812 50.046875 -18.050781 50.046875 -15.0625 C 50.046875 -12.125 49.351562 -9.519531 47.96875 -7.25 C 46.582031 -4.976562 44.660156 -3.203125 42.203125 -1.921875 C 39.742188 -0.640625 36.914062 0 33.71875 0 Z M 13.78125 -31.71875 L 31.15625 -31.71875 C 34.195312 -31.71875 36.691406 -32.539062 38.640625 -34.1875 C 40.585938 -35.84375 41.5625 -37.953125 41.5625 -40.515625 C 41.5625 -43.078125 40.585938 -45.1875 38.640625 -46.84375 C 36.691406 -48.5 34.195312 -49.328125 31.15625 -49.328125 L 13.78125 -49.328125 Z M 13.78125 -5.6875 L 32.109375 -5.6875 C 35.523438 -5.6875 38.3125 -6.644531 40.46875 -8.5625 C 42.632812 -10.488281 43.71875 -12.921875 43.71875 -15.859375 C 43.71875 -18.847656 42.632812 -21.289062 40.46875 -23.1875 C 38.3125 -25.082031 35.523438 -26.03125 32.109375 -26.03125 L 13.78125 -26.03125 Z M 13.78125 -5.6875 "/></g></g></g><g fill="#0d7a64" fill-opacity="1"><g transform="translate(157.430296, 162.503903)"><g><path d="M 51.09375 -55.015625 L 57.890625 -55.015625 L 33.640625 0 L 26.828125 0 L 2.5625 -55.015625 L 9.375 -55.015625 L 30.265625 -7.6875 Z M 51.09375 -55.015625 "/></g></g></g><g fill="#0d7a64" fill-opacity="1"><g transform="translate(206.376983, 162.503903)"><g><path d="M 11.6875 -5.921875 L 41.71875 -5.921875 L 41.71875 0 L 5.453125 0 L 5.453125 -55.015625 L 11.6875 -55.015625 Z M 11.6875 -5.921875 "/></g></g></g></svg>