<svg xmlns="http://www.w3.org/2000/svg" xmlns:xlink="http://www.w3.org/1999/xlink" width="457" zoomAndPan="magnify" viewBox="0 0 342.75 73.499998" height="98" preserveAspectRatio="xMidYMid meet" version="1.0"><defs><clipPath id="e6851ba049"><path d="M 64 6 L 96 6 L 96 47 L 64 47 Z M 64 6 " clip-rule="nonzero"/></clipPath><clipPath id="c35cfde4fc"><path d="M 64.382812 6.140625 L 89.957031 6.140625 C 91.546875 6.140625 92.902344 6.691406 94.023438 7.792969 C 95.140625 8.898438 95.707031 10.261719 95.707031 11.878906 L 95.707031 20.886719 C 95.707031 22.09375 95.363281 23.191406 94.671875 24.175781 C 93.976562 25.160156 93.082031 25.859375 91.980469 26.269531 C 93.082031 26.6875 93.976562 27.382812 94.671875 28.367188 C 95.363281 29.351562 95.707031 30.460938 95.707031 31.707031 L 95.707031 40.660156 C 95.707031 42.289062 95.148438 43.644531 94.023438 44.753906 C 92.902344 45.859375 91.546875 46.410156 89.957031 46.410156 L 64.382812 46.410156 Z M 68.425781 24.300781 L 88.042969 24.300781 C 89.039062 24.300781 89.90625 23.9375 90.628906 23.214844 C 91.351562 22.492188 91.71875 21.640625 91.71875 20.679688 L 91.71875 13.171875 C 91.71875 12.304688 91.398438 11.574219 90.761719 10.972656 C 90.121094 10.367188 89.375 10.070312 88.511719 10.070312 L 68.425781 10.070312 Z M 68.425781 28.238281 L 68.425781 42.472656 L 88.511719 42.472656 C 89.375 42.472656 90.121094 42.167969 90.761719 41.570312 C 91.40625 40.96875 91.71875 40.238281 91.71875 39.371094 L 91.71875 31.863281 C 91.71875 30.902344 91.351562 30.050781 90.628906 29.328125 C 89.90625 28.605469 89.039062 28.238281 88.042969 28.238281 Z M 68.425781 28.238281 " clip-rule="nonzero"/></clipPath><clipPath id="27858d0b7d"><path d="M 103.261719 6.140625 L 107.867188 6.140625 L 107.867188 10.074219 L 103.261719 10.074219 Z M 103.679688 17.628906 L 107.40625 17.628906 L 107.40625 46.410156 L 103.679688 46.410156 Z M 103.679688 17.628906 " clip-rule="nonzero"/></clipPath><clipPath id="f87fbba066"><path d="M 115 17 L 140 17 L 140 58 L 115 58 Z M 115 17 " clip-rule="nonzero"/></clipPath><clipPath id="e9151de654"><path d="M 121.171875 17.628906 L 128.15625 17.628906 C 129.773438 17.628906 131.273438 18.113281 132.636719 19.074219 C 134.003906 20.046875 134.972656 21.28125 135.5625 22.804688 L 135.5625 17.628906 L 139.289062 17.628906 L 139.289062 52.160156 C 139.289062 53.777344 138.730469 55.140625 137.605469 56.246094 C 136.484375 57.347656 135.128906 57.902344 133.539062 57.902344 L 121.171875 57.902344 C 119.621094 57.902344 118.269531 57.335938 117.128906 56.195312 C 115.988281 55.050781 115.421875 53.710938 115.421875 52.152344 L 115.421875 50.339844 L 118.730469 50.339844 L 118.730469 51.117188 C 118.730469 52.078125 119.058594 52.914062 119.714844 53.597656 C 120.371094 54.292969 121.183594 54.636719 122.148438 54.636719 L 132.085938 54.636719 C 133.054688 54.636719 133.875 54.292969 134.546875 53.597656 C 135.21875 52.90625 135.554688 52.078125 135.554688 51.117188 L 135.554688 41.488281 C 134.933594 42.972656 133.941406 44.167969 132.578125 45.0625 C 131.214844 45.957031 129.738281 46.402344 128.148438 46.402344 L 121.164062 46.402344 C 119.539062 46.402344 118.179688 45.851562 117.078125 44.746094 C 115.972656 43.644531 115.421875 42.28125 115.421875 40.65625 L 115.421875 23.414062 C 115.421875 21.796875 115.980469 20.425781 117.105469 19.300781 C 118.226562 18.179688 119.582031 17.613281 121.171875 17.613281 Z M 122.3125 21.199219 C 121.445312 21.199219 120.707031 21.527344 120.082031 22.183594 C 119.460938 22.839844 119.148438 23.601562 119.148438 24.460938 L 119.148438 39.625 C 119.148438 40.492188 119.460938 41.242188 120.082031 41.878906 C 120.699219 42.519531 121.445312 42.832031 122.3125 42.832031 L 129.191406 42.832031 C 130.914062 42.832031 132.414062 42.210938 133.675781 40.96875 C 134.933594 39.722656 135.5625 38.238281 135.5625 36.515625 L 135.5625 27.769531 C 135.5625 25.972656 134.925781 24.429688 133.675781 23.140625 C 132.414062 21.84375 130.921875 21.199219 129.191406 21.199219 Z M 122.3125 21.199219 " clip-rule="nonzero"/></clipPath><clipPath id="02dcd32e53"><path d="M 146.125 27.203125 L 167.503906 27.203125 L 167.503906 30.773438 L 146.125 30.773438 Z M 146.125 27.203125 " clip-rule="nonzero"/></clipPath><clipPath id="8acb580954"><path d="M 174 6 L 213 6 L 213 47 L 174 47 Z M 174 6 " clip-rule="nonzero"/></clipPath><clipPath id="77653311ca"><path d="M 174.386719 6.140625 L 178.425781 6.140625 L 193.183594 35.957031 L 207.992188 6.140625 L 212.078125 6.140625 L 212.078125 46.417969 L 208.035156 46.417969 L 208.035156 12.96875 L 194.371094 40.660156 L 191.992188 40.660156 L 178.425781 13.015625 L 178.425781 46.402344 L 174.386719 46.402344 Z M 174.386719 6.140625 " clip-rule="nonzero"/></clipPath><clipPath id="a66d242925"><path d="M 218 17 L 243 17 L 243 47 L 218 47 Z M 218 17 " clip-rule="nonzero"/></clipPath><clipPath id="5efce5c73e"><path d="M 225.796875 17.628906 L 237.035156 17.628906 C 238.621094 17.628906 239.980469 18.1875 241.097656 19.3125 C 242.214844 20.433594 242.785156 21.804688 242.785156 23.429688 L 242.785156 46.417969 L 239.003906 46.417969 L 239.003906 41.707031 C 238.414062 43.152344 237.460938 44.300781 236.132812 45.152344 C 234.804688 45.992188 233.3125 46.417969 231.652344 46.417969 L 224.664062 46.417969 C 223.039062 46.417969 221.683594 45.867188 220.570312 44.761719 C 219.46875 43.660156 218.914062 42.292969 218.914062 40.667969 L 218.914062 34.921875 C 218.914062 33.332031 219.46875 31.976562 220.570312 30.855469 C 221.675781 29.738281 223.039062 29.171875 224.664062 29.171875 L 239.003906 29.171875 L 239.003906 24.460938 C 239.003906 23.59375 238.691406 22.839844 238.070312 22.183594 C 237.453125 21.527344 236.707031 21.199219 235.839844 21.199219 L 226.9375 21.199219 C 226.074219 21.199219 225.335938 21.527344 224.710938 22.183594 C 224.089844 22.839844 223.777344 23.601562 223.777344 24.460938 L 223.777344 25.390625 L 220.050781 25.390625 L 220.050781 23.421875 C 220.050781 21.835938 220.609375 20.46875 221.734375 19.335938 C 222.851562 18.195312 224.210938 17.628906 225.796875 17.628906 Z M 238.996094 32.585938 L 225.789062 32.585938 C 224.925781 32.585938 224.1875 32.898438 223.5625 33.519531 C 222.933594 34.136719 222.628906 34.882812 222.628906 35.75 L 222.628906 39.632812 C 222.628906 40.496094 222.941406 41.25 223.5625 41.886719 C 224.179688 42.527344 224.925781 42.839844 225.789062 42.839844 L 232.671875 42.839844 C 234.394531 42.839844 235.878906 42.21875 237.125 40.976562 C 238.367188 39.730469 238.988281 38.246094 238.988281 36.523438 L 238.988281 32.585938 Z M 238.996094 32.585938 " clip-rule="nonzero"/></clipPath><clipPath id="c0d7bb2a7b"><path d="M 251 6 L 265 6 L 265 47 L 251 47 Z M 251 6 " clip-rule="nonzero"/></clipPath><clipPath id="950ddceb0b"><path d="M 251.007812 6.496094 L 254.789062 6.496094 L 254.789062 17.628906 L 264.519531 17.628906 L 264.519531 21.199219 L 254.789062 21.199219 L 254.789062 39.632812 C 254.789062 40.496094 255.101562 41.25 255.71875 41.886719 C 256.339844 42.527344 257.085938 42.839844 257.949219 42.839844 L 264.527344 42.839844 L 264.527344 46.410156 L 256.765625 46.410156 C 255.175781 46.410156 253.820312 45.859375 252.699219 44.753906 C 251.582031 43.652344 251.015625 42.289062 251.015625 40.660156 L 251.015625 6.496094 Z M 251.007812 6.496094 " clip-rule="nonzero"/></clipPath><clipPath id="231d8741b5"><path d="M 269 17 L 285 17 L 285 47 L 269 47 Z M 269 17 " clip-rule="nonzero"/></clipPath><clipPath id="f09b63bcc8"><path d="M 269.230469 17.628906 L 272.960938 17.628906 L 272.960938 22.550781 C 273.578125 21.066406 274.570312 19.875 275.933594 18.980469 C 277.296875 18.085938 278.753906 17.636719 280.3125 17.636719 L 284.917969 17.636719 L 284.917969 21.207031 L 279.273438 21.207031 C 277.542969 21.207031 276.066406 21.84375 274.824219 23.09375 C 273.578125 24.355469 272.960938 25.847656 272.960938 27.574219 L 272.960938 46.417969 L 269.230469 46.417969 Z M 269.230469 17.628906 " clip-rule="nonzero"/></clipPath><clipPath id="dc21a1127f"><path d="M 289.003906 6.140625 L 293.613281 6.140625 L 293.613281 10.074219 L 289.003906 10.074219 Z M 289.414062 17.628906 L 293.144531 17.628906 L 293.144531 46.410156 L 289.414062 46.410156 Z M 289.414062 17.628906 " clip-rule="nonzero"/></clipPath><clipPath id="ff8afd49bf"><path d="M 282 17 L 324 17 L 324 71 L 282 71 Z M 282 17 " clip-rule="nonzero"/></clipPath><clipPath id="5cc980ce0e"><path d="M 297.699219 17.628906 L 302.203125 17.628906 L 310.800781 29.746094 L 319.34375 17.628906 L 323.902344 17.628906 L 313.1875 32.019531 L 323.902344 46.410156 L 319.34375 46.410156 L 310.800781 34.347656 L 287.171875 70.949219 L 282.667969 70.949219 L 308.421875 32.011719 L 297.707031 17.621094 Z M 297.699219 17.628906 " clip-rule="nonzero"/></clipPath><clipPath id="570d7230d7"><path d="M 324.078125 6.421875 L 325.136719 6.421875 L 325.136719 13.191406 L 324.078125 13.191406 Z M 324.078125 13.191406 L 329.867188 13.191406 L 329.867188 14.214844 L 324.078125 14.214844 Z M 324.078125 13.191406 " clip-rule="nonzero"/></clipPath><clipPath id="bbbffa891b"><path d="M 330 8 L 336 8 L 336 15 L 330 15 Z M 330 8 " clip-rule="nonzero"/></clipPath><clipPath id="02e16e6e7b"><path d="M 331.730469 8.644531 L 334.09375 8.644531 C 334.40625 8.644531 334.675781 8.757812 334.890625 8.972656 C 335.109375 9.195312 335.21875 9.457031 335.21875 9.761719 L 335.21875 14.207031 L 334.234375 14.207031 L 334.234375 13.328125 C 334.125 13.59375 333.945312 13.804688 333.707031 13.96875 C 333.46875 14.125 333.191406 14.207031 332.886719 14.207031 L 331.515625 14.207031 C 331.199219 14.207031 330.941406 14.101562 330.722656 13.886719 C 330.507812 13.671875 330.402344 13.410156 330.402344 13.097656 L 330.402344 11.984375 C 330.402344 11.679688 330.507812 11.417969 330.722656 11.203125 C 330.941406 10.984375 331.199219 10.875 331.515625 10.875 L 334.234375 10.875 L 334.234375 10.0625 C 334.234375 9.925781 334.191406 9.816406 334.09375 9.71875 C 333.996094 9.621094 333.890625 9.578125 333.765625 9.578125 L 332.074219 9.578125 C 331.945312 9.578125 331.835938 9.628906 331.738281 9.71875 C 331.640625 9.816406 331.59375 9.925781 331.59375 10.0625 L 331.59375 10.285156 L 330.625 10.285156 L 330.625 9.761719 C 330.625 9.457031 330.738281 9.1875 330.953125 8.972656 C 331.171875 8.757812 331.433594 8.644531 331.738281 8.644531 Z M 334.234375 11.769531 L 331.839844 11.769531 C 331.707031 11.769531 331.59375 11.8125 331.507812 11.910156 C 331.417969 12.007812 331.371094 12.113281 331.371094 12.238281 L 331.371094 12.796875 C 331.371094 12.933594 331.417969 13.042969 331.511719 13.140625 C 331.609375 13.238281 331.714844 13.28125 331.839844 13.28125 L 333.183594 13.28125 C 333.476562 13.28125 333.722656 13.179688 333.921875 12.96875 C 334.128906 12.761719 334.234375 12.515625 334.234375 12.214844 L 334.234375 11.753906 Z M 334.234375 11.769531 " clip-rule="nonzero"/></clipPath><clipPath id="a6ffede23d"><path d="M 336 6 L 341.46875 6 L 341.46875 15 L 336 15 Z M 336 6 " clip-rule="nonzero"/></clipPath><clipPath id="464f603e0a"><path d="M 336.652344 6.421875 L 337.621094 6.421875 L 337.621094 9.523438 C 337.730469 9.253906 337.910156 9.046875 338.164062 8.882812 C 338.410156 8.726562 338.679688 8.644531 338.96875 8.644531 L 340.363281 8.644531 C 340.671875 8.644531 340.929688 8.757812 341.148438 8.972656 C 341.363281 9.1875 341.476562 9.457031 341.476562 9.769531 L 341.476562 13.101562 C 341.476562 13.417969 341.363281 13.675781 341.148438 13.894531 C 340.929688 14.109375 340.671875 14.214844 340.363281 14.214844 L 338.96875 14.214844 C 338.679688 14.214844 338.410156 14.132812 338.164062 13.960938 C 337.917969 13.796875 337.738281 13.574219 337.628906 13.3125 L 337.628906 14.214844 L 336.660156 14.214844 L 336.660156 6.421875 Z M 338.679688 9.578125 C 338.386719 9.578125 338.136719 9.679688 337.925781 9.890625 C 337.71875 10.097656 337.613281 10.34375 337.613281 10.628906 L 337.613281 12.179688 C 337.613281 12.46875 337.71875 12.730469 337.925781 12.953125 C 338.136719 13.179688 338.386719 13.289062 338.671875 13.289062 L 340.007812 13.289062 C 340.132812 13.289062 340.246094 13.246094 340.34375 13.148438 C 340.4375 13.050781 340.484375 12.9375 340.484375 12.804688 L 340.484375 10.070312 C 340.484375 9.933594 340.4375 9.824219 340.34375 9.726562 C 340.246094 9.628906 340.132812 9.582031 340.007812 9.582031 L 338.671875 9.582031 Z M 338.679688 9.578125 " clip-rule="nonzero"/></clipPath><clipPath id="aea0b4e1cb"><path d="M 139 62 L 145 62 L 145 71 L 139 71 Z M 139 62 " clip-rule="nonzero"/></clipPath><clipPath id="e255e7177b"><path d="M 139.265625 62.746094 L 140.898438 62.746094 C 141.808594 62.746094 142.429688 62.785156 142.75 62.859375 C 143.234375 62.972656 143.628906 63.210938 143.933594 63.574219 C 144.242188 63.941406 144.390625 64.394531 144.390625 64.933594 C 144.390625 65.378906 144.285156 65.773438 144.078125 66.109375 C 143.867188 66.445312 143.570312 66.707031 143.175781 66.878906 C 142.785156 67.050781 142.242188 67.140625 141.554688 67.148438 L 144.507812 70.957031 L 143.496094 70.957031 L 140.542969 67.148438 L 140.078125 67.148438 L 140.078125 70.957031 L 139.257812 70.957031 L 139.257812 62.753906 Z M 140.085938 63.554688 L 140.085938 66.339844 L 141.503906 66.339844 C 142.046875 66.347656 142.457031 66.304688 142.71875 66.199219 C 142.980469 66.09375 143.1875 65.929688 143.332031 65.699219 C 143.472656 65.46875 143.554688 65.214844 143.554688 64.933594 C 143.554688 64.648438 143.480469 64.410156 143.332031 64.179688 C 143.179688 63.957031 142.988281 63.792969 142.742188 63.695312 C 142.503906 63.597656 142.101562 63.554688 141.535156 63.554688 Z M 140.085938 63.554688 " clip-rule="nonzero"/></clipPath><clipPath id="38e7a76275"><path d="M 145 64 L 153 64 L 153 72 L 145 72 Z M 145 64 " clip-rule="nonzero"/></clipPath><clipPath id="bbfad3d90f"><path d="M 151.136719 68.945312 L 151.792969 69.285156 C 151.578125 69.710938 151.332031 70.054688 151.046875 70.316406 C 150.765625 70.578125 150.445312 70.777344 150.09375 70.914062 C 149.742188 71.046875 149.339844 71.113281 148.894531 71.113281 C 147.902344 71.113281 147.125 70.792969 146.574219 70.144531 C 146.023438 69.496094 145.738281 68.765625 145.738281 67.945312 C 145.738281 67.175781 145.976562 66.492188 146.449219 65.886719 C 147.042969 65.117188 147.847656 64.738281 148.855469 64.738281 C 149.863281 64.738281 150.71875 65.132812 151.332031 65.917969 C 151.769531 66.46875 151.996094 67.160156 152.003906 67.988281 L 146.542969 67.988281 C 146.558594 68.691406 146.78125 69.273438 147.222656 69.71875 C 147.65625 70.167969 148.199219 70.398438 148.832031 70.398438 C 149.140625 70.398438 149.445312 70.34375 149.734375 70.234375 C 150.027344 70.128906 150.273438 69.988281 150.480469 69.808594 C 150.691406 69.628906 150.90625 69.347656 151.144531 68.945312 Z M 151.136719 67.3125 C 151.03125 66.894531 150.882812 66.566406 150.683594 66.3125 C 150.480469 66.066406 150.21875 65.863281 149.890625 65.707031 C 149.5625 65.558594 149.222656 65.476562 148.855469 65.476562 C 148.257812 65.476562 147.746094 65.671875 147.320312 66.050781 C 147.007812 66.328125 146.769531 66.75 146.613281 67.304688 L 151.136719 67.304688 Z M 151.136719 67.3125 " clip-rule="nonzero"/></clipPath><clipPath id="54f4232964"><path d="M 152 64 L 157 64 L 157 72 L 152 72 Z M 152 64 " clip-rule="nonzero"/></clipPath><clipPath id="6a78c978b7"><path d="M 156.507812 65.550781 L 156.007812 66.074219 C 155.589844 65.671875 155.179688 65.460938 154.785156 65.460938 C 154.53125 65.460938 154.3125 65.542969 154.136719 65.714844 C 153.957031 65.878906 153.867188 66.082031 153.867188 66.304688 C 153.867188 66.5 153.941406 66.691406 154.089844 66.871094 C 154.238281 67.050781 154.550781 67.265625 155.03125 67.511719 C 155.609375 67.808594 156.007812 68.101562 156.214844 68.382812 C 156.425781 68.667969 156.519531 68.980469 156.519531 69.339844 C 156.519531 69.839844 156.347656 70.257812 156 70.605469 C 155.648438 70.957031 155.207031 71.128906 154.6875 71.128906 C 154.335938 71.128906 154 71.054688 153.6875 70.898438 C 153.367188 70.75 153.105469 70.53125 152.898438 70.269531 L 153.390625 69.710938 C 153.792969 70.160156 154.210938 70.390625 154.65625 70.390625 C 154.96875 70.390625 155.238281 70.292969 155.453125 70.09375 C 155.671875 69.890625 155.78125 69.652344 155.78125 69.382812 C 155.78125 69.160156 155.707031 68.957031 155.566406 68.789062 C 155.425781 68.617188 155.097656 68.398438 154.582031 68.136719 C 154.039062 67.855469 153.664062 67.578125 153.464844 67.304688 C 153.269531 67.027344 153.164062 66.714844 153.164062 66.363281 C 153.164062 65.902344 153.320312 65.519531 153.636719 65.214844 C 153.949219 64.910156 154.351562 64.761719 154.828125 64.761719 C 155.386719 64.761719 155.945312 65.035156 156.511719 65.582031 Z M 156.507812 65.550781 " clip-rule="nonzero"/></clipPath><clipPath id="afab08dee0"><path d="M 157 64 L 164 64 L 164 72 L 157 72 Z M 157 64 " clip-rule="nonzero"/></clipPath><clipPath id="7708776cbb"><path d="M 162.992188 68.945312 L 163.648438 69.285156 C 163.433594 69.710938 163.1875 70.054688 162.902344 70.316406 C 162.621094 70.578125 162.300781 70.777344 161.949219 70.914062 C 161.597656 71.046875 161.195312 71.113281 160.75 71.113281 C 159.757812 71.113281 158.980469 70.792969 158.429688 70.144531 C 157.878906 69.496094 157.59375 68.765625 157.59375 67.945312 C 157.59375 67.175781 157.832031 66.492188 158.304688 65.886719 C 158.898438 65.117188 159.703125 64.738281 160.710938 64.738281 C 161.71875 64.738281 162.574219 65.132812 163.1875 65.917969 C 163.625 66.46875 163.851562 67.160156 163.859375 67.988281 L 158.398438 67.988281 C 158.414062 68.691406 158.636719 69.273438 159.078125 69.71875 C 159.519531 70.167969 160.054688 70.398438 160.6875 70.398438 C 160.996094 70.398438 161.300781 70.34375 161.589844 70.234375 C 161.882812 70.128906 162.128906 69.988281 162.335938 69.808594 C 162.546875 69.628906 162.761719 69.347656 163 68.945312 Z M 162.992188 67.3125 C 162.886719 66.894531 162.738281 66.566406 162.539062 66.3125 C 162.335938 66.066406 162.074219 65.863281 161.746094 65.707031 C 161.417969 65.558594 161.078125 65.476562 160.710938 65.476562 C 160.113281 65.476562 159.601562 65.671875 159.175781 66.050781 C 158.863281 66.328125 158.625 66.75 158.46875 67.304688 L 162.992188 67.304688 Z M 162.992188 67.3125 " clip-rule="nonzero"/></clipPath><clipPath id="2174f72a19"><path d="M 165 64 L 172 64 L 172 72 L 165 72 Z M 165 64 " clip-rule="nonzero"/></clipPath><clipPath id="b55569d6cb"><path d="M 171.359375 64.886719 L 171.359375 70.957031 L 170.589844 70.957031 L 170.589844 69.914062 C 170.261719 70.308594 169.898438 70.605469 169.488281 70.808594 C 169.078125 71.007812 168.636719 71.105469 168.152344 71.105469 C 167.296875 71.105469 166.558594 70.792969 165.953125 70.175781 C 165.339844 69.546875 165.042969 68.792969 165.042969 67.898438 C 165.042969 67.003906 165.347656 66.28125 165.960938 65.65625 C 166.570312 65.035156 167.308594 64.722656 168.175781 64.722656 C 168.675781 64.722656 169.121094 64.828125 169.523438 65.042969 C 169.925781 65.253906 170.285156 65.574219 170.582031 66 L 170.582031 64.878906 L 171.351562 64.878906 Z M 168.234375 65.484375 C 167.800781 65.484375 167.398438 65.589844 167.035156 65.804688 C 166.667969 66.019531 166.371094 66.320312 166.15625 66.707031 C 165.9375 67.09375 165.828125 67.503906 165.828125 67.929688 C 165.828125 68.355469 165.9375 68.765625 166.15625 69.152344 C 166.371094 69.539062 166.667969 69.847656 167.035156 70.0625 C 167.40625 70.277344 167.800781 70.390625 168.226562 70.390625 C 168.652344 70.390625 169.0625 70.285156 169.441406 70.070312 C 169.824219 69.851562 170.121094 69.5625 170.324219 69.199219 C 170.53125 68.832031 170.636719 68.414062 170.636719 67.953125 C 170.636719 67.25 170.40625 66.664062 169.941406 66.191406 C 169.480469 65.722656 168.914062 65.484375 168.234375 65.484375 Z M 168.234375 65.484375 " clip-rule="nonzero"/></clipPath><clipPath id="1162bb5fe4"><path d="M 172 64 L 176 64 L 176 71 L 172 71 Z M 172 64 " clip-rule="nonzero"/></clipPath><clipPath id="93bc7a860d"><path d="M 172.820312 64.886719 L 173.617188 64.886719 L 173.617188 65.773438 C 173.855469 65.425781 174.109375 65.164062 174.371094 64.992188 C 174.632812 64.820312 174.90625 64.730469 175.199219 64.730469 C 175.414062 64.730469 175.644531 64.796875 175.890625 64.941406 L 175.480469 65.597656 C 175.316406 65.527344 175.183594 65.492188 175.070312 65.492188 C 174.8125 65.492188 174.558594 65.597656 174.320312 65.8125 C 174.082031 66.027344 173.894531 66.355469 173.765625 66.804688 C 173.671875 67.148438 173.625 67.847656 173.625 68.898438 L 173.625 70.949219 L 172.828125 70.949219 L 172.828125 64.878906 Z M 172.820312 64.886719 " clip-rule="nonzero"/></clipPath><clipPath id="79a361863e"><path d="M 176 64 L 183 64 L 183 72 L 176 72 Z M 176 64 " clip-rule="nonzero"/></clipPath><clipPath id="296654b915"><path d="M 182.4375 66.148438 L 181.820312 66.535156 C 181.285156 65.828125 180.550781 65.46875 179.628906 65.46875 C 178.890625 65.46875 178.277344 65.707031 177.785156 66.183594 C 177.292969 66.664062 177.054688 67.238281 177.054688 67.914062 C 177.054688 68.355469 177.167969 68.773438 177.390625 69.160156 C 177.613281 69.546875 177.921875 69.851562 178.316406 70.070312 C 178.710938 70.285156 179.144531 70.390625 179.636719 70.390625 C 180.53125 70.390625 181.253906 70.03125 181.820312 69.324219 L 182.4375 69.734375 C 182.148438 70.167969 181.761719 70.507812 181.269531 70.75 C 180.777344 70.988281 180.222656 71.105469 179.597656 71.105469 C 178.636719 71.105469 177.847656 70.800781 177.210938 70.1875 C 176.578125 69.578125 176.265625 68.839844 176.265625 67.96875 C 176.265625 67.378906 176.414062 66.832031 176.707031 66.328125 C 176.996094 65.820312 177.40625 65.433594 177.921875 65.148438 C 178.433594 64.863281 179.015625 64.722656 179.65625 64.722656 C 180.058594 64.722656 180.449219 64.78125 180.820312 64.910156 C 181.195312 65.027344 181.515625 65.191406 181.777344 65.386719 C 182.035156 65.582031 182.261719 65.835938 182.4375 66.140625 Z M 182.4375 66.148438 " clip-rule="nonzero"/></clipPath><clipPath id="55ab2b886c"><path d="M 183 62 L 190 62 L 190 71 L 183 71 Z M 183 62 " clip-rule="nonzero"/></clipPath><clipPath id="ea33ef378e"><path d="M 183.9375 62.546875 L 184.722656 62.546875 L 184.722656 65.976562 C 185.035156 65.558594 185.382812 65.246094 185.765625 65.042969 C 186.144531 64.835938 186.554688 64.730469 186.996094 64.730469 C 187.433594 64.730469 187.851562 64.84375 188.203125 65.074219 C 188.554688 65.304688 188.8125 65.609375 188.976562 66.007812 C 189.140625 66.394531 189.230469 67.003906 189.230469 67.832031 L 189.230469 70.957031 L 188.449219 70.957031 L 188.449219 68.0625 C 188.449219 67.363281 188.417969 66.902344 188.367188 66.664062 C 188.269531 66.257812 188.089844 65.960938 187.835938 65.761719 C 187.582031 65.558594 187.25 65.453125 186.839844 65.453125 C 186.367188 65.453125 185.945312 65.609375 185.570312 65.925781 C 185.199219 66.238281 184.953125 66.625 184.832031 67.085938 C 184.757812 67.386719 184.71875 67.9375 184.71875 68.734375 L 184.71875 70.957031 L 183.9375 70.957031 Z M 183.9375 62.546875 " clip-rule="nonzero"/></clipPath><clipPath id="16c2210309"><path d="M 194 63 L 202 63 L 202 72 L 194 72 Z M 194 63 " clip-rule="nonzero"/></clipPath><clipPath id="95095ddfc1"><path d="M 200.402344 67.921875 L 200.960938 68.511719 C 200.601562 68.824219 200.265625 69.101562 199.945312 69.332031 C 200.171875 69.539062 200.460938 69.816406 200.820312 70.175781 C 201.101562 70.457031 201.347656 70.71875 201.550781 70.957031 L 200.410156 70.957031 L 199.320312 69.839844 C 198.632812 70.390625 198.082031 70.75 197.648438 70.914062 C 197.21875 71.078125 196.769531 71.164062 196.292969 71.164062 C 195.660156 71.164062 195.152344 70.988281 194.773438 70.621094 C 194.390625 70.257812 194.199219 69.808594 194.199219 69.265625 C 194.199219 68.855469 194.324219 68.445312 194.585938 68.035156 C 194.847656 67.625 195.367188 67.101562 196.167969 66.476562 C 195.71875 65.929688 195.429688 65.527344 195.300781 65.273438 C 195.175781 65.015625 195.105469 64.769531 195.105469 64.539062 C 195.105469 64.128906 195.265625 63.792969 195.585938 63.523438 C 195.949219 63.210938 196.40625 63.054688 196.949219 63.054688 C 197.292969 63.054688 197.605469 63.121094 197.886719 63.261719 C 198.171875 63.402344 198.386719 63.582031 198.539062 63.8125 C 198.6875 64.046875 198.761719 64.292969 198.761719 64.550781 C 198.761719 64.828125 198.664062 65.117188 198.46875 65.433594 C 198.277344 65.746094 197.894531 66.140625 197.320312 66.625 L 198.566406 67.929688 L 199.378906 68.757812 C 199.820312 68.4375 200.164062 68.160156 200.417969 67.929688 Z M 196.703125 67.085938 C 196.007812 67.609375 195.546875 68.027344 195.332031 68.339844 C 195.113281 68.652344 195.003906 68.9375 195.003906 69.203125 C 195.003906 69.519531 195.136719 69.792969 195.398438 70.03125 C 195.660156 70.269531 195.988281 70.390625 196.367188 70.390625 C 196.660156 70.390625 196.941406 70.332031 197.226562 70.210938 C 197.664062 70.023438 198.164062 69.695312 198.738281 69.25 L 197.441406 67.914062 C 197.21875 67.683594 196.972656 67.40625 196.695312 67.085938 Z M 196.808594 66 C 197.203125 65.691406 197.507812 65.386719 197.710938 65.089844 C 197.851562 64.878906 197.925781 64.6875 197.925781 64.523438 C 197.925781 64.335938 197.835938 64.171875 197.648438 64.03125 C 197.464844 63.894531 197.21875 63.820312 196.910156 63.820312 C 196.605469 63.820312 196.382812 63.886719 196.203125 64.03125 C 196.023438 64.171875 195.925781 64.335938 195.925781 64.53125 C 195.925781 64.679688 195.964844 64.820312 196.039062 64.945312 C 196.226562 65.261719 196.480469 65.609375 196.816406 65.984375 Z M 196.808594 66 " clip-rule="nonzero"/></clipPath><clipPath id="1b9fa37d24"><path d="M 205 62 L 213 62 L 213 71 L 205 71 Z M 205 62 " clip-rule="nonzero"/></clipPath><clipPath id="5adc5b181a"><path d="M 206 70.957031 L 206 62.753906 L 207.699219 62.753906 C 208.929688 62.753906 209.820312 62.851562 210.371094 63.054688 C 211.167969 63.328125 211.789062 63.8125 212.234375 64.5 C 212.683594 65.1875 212.90625 66.007812 212.90625 66.960938 C 212.90625 67.78125 212.726562 68.503906 212.375 69.128906 C 212.019531 69.757812 211.5625 70.21875 210.988281 70.507812 C 210.421875 70.808594 209.625 70.957031 208.601562 70.957031 L 205.992188 70.957031 Z M 206.792969 70.179688 L 207.738281 70.179688 C 208.871094 70.179688 209.664062 70.113281 210.09375 69.972656 C 210.714844 69.773438 211.199219 69.414062 211.546875 68.890625 C 211.898438 68.371094 212.078125 67.726562 212.078125 66.976562 C 212.078125 66.222656 211.882812 65.507812 211.503906 64.945312 C 211.125 64.386719 210.585938 64 209.902344 63.792969 C 209.386719 63.636719 208.542969 63.558594 207.367188 63.558594 L 206.785156 63.558594 L 206.785156 70.1875 Z M 206.792969 70.179688 " clip-rule="nonzero"/></clipPath><clipPath id="946eeb8872"><path d="M 214 64 L 221 64 L 221 72 L 214 72 Z M 214 64 " clip-rule="nonzero"/></clipPath><clipPath id="d6c1c11808"><path d="M 219.480469 68.945312 L 220.136719 69.285156 C 219.921875 69.710938 219.675781 70.054688 219.394531 70.316406 C 219.109375 70.578125 218.789062 70.777344 218.4375 70.914062 C 218.085938 71.046875 217.683594 71.113281 217.238281 71.113281 C 216.246094 71.113281 215.46875 70.792969 214.917969 70.144531 C 214.367188 69.496094 214.082031 68.765625 214.082031 67.945312 C 214.082031 67.175781 214.324219 66.492188 214.792969 65.886719 C 215.386719 65.117188 216.195312 64.738281 217.199219 64.738281 C 218.207031 64.738281 219.066406 65.132812 219.675781 65.917969 C 220.117188 66.46875 220.339844 67.160156 220.347656 67.988281 L 214.890625 67.988281 C 214.902344 68.691406 215.128906 69.273438 215.566406 69.71875 C 216.007812 70.167969 216.542969 70.398438 217.179688 70.398438 C 217.484375 70.398438 217.789062 70.34375 218.082031 70.234375 C 218.371094 70.128906 218.617188 69.988281 218.824219 69.808594 C 219.035156 69.628906 219.25 69.347656 219.488281 68.945312 Z M 219.480469 67.3125 C 219.378906 66.894531 219.230469 66.566406 219.027344 66.3125 C 218.824219 66.066406 218.566406 65.863281 218.238281 65.707031 C 217.910156 65.558594 217.566406 65.476562 217.199219 65.476562 C 216.605469 65.476562 216.089844 65.671875 215.664062 66.050781 C 215.351562 66.328125 215.113281 66.75 214.957031 67.304688 L 219.480469 67.304688 Z M 219.480469 67.3125 " clip-rule="nonzero"/></clipPath><clipPath id="79b27ea3fa"><path d="M 221 64 L 227 64 L 227 71 L 221 71 Z M 221 64 " clip-rule="nonzero"/></clipPath><clipPath id="2cbaff616e"><path d="M 221.226562 64.886719 L 222.054688 64.886719 L 224.089844 69.308594 L 226.101562 64.886719 L 226.9375 64.886719 L 224.15625 70.957031 L 224.015625 70.957031 L 221.21875 64.886719 Z M 221.226562 64.886719 " clip-rule="nonzero"/></clipPath><clipPath id="07578deb93"><path d="M 227 64 L 235 64 L 235 72 L 227 72 Z M 227 64 " clip-rule="nonzero"/></clipPath><clipPath id="4636f05dca"><path d="M 233.238281 68.945312 L 233.894531 69.285156 C 233.679688 69.710938 233.433594 70.054688 233.148438 70.316406 C 232.867188 70.578125 232.546875 70.777344 232.195312 70.914062 C 231.84375 71.046875 231.441406 71.113281 230.996094 71.113281 C 230.003906 71.113281 229.226562 70.792969 228.675781 70.144531 C 228.125 69.496094 227.839844 68.765625 227.839844 67.945312 C 227.839844 67.175781 228.078125 66.492188 228.550781 65.886719 C 229.144531 65.117188 229.949219 64.738281 230.957031 64.738281 C 231.964844 64.738281 232.820312 65.132812 233.433594 65.917969 C 233.871094 66.46875 234.097656 67.160156 234.105469 67.988281 L 228.644531 67.988281 C 228.660156 68.691406 228.882812 69.273438 229.324219 69.71875 C 229.765625 70.167969 230.300781 70.398438 230.933594 70.398438 C 231.242188 70.398438 231.546875 70.34375 231.835938 70.234375 C 232.128906 70.128906 232.375 69.988281 232.582031 69.808594 C 232.792969 69.628906 233.007812 69.347656 233.246094 68.945312 Z M 233.238281 67.3125 C 233.132812 66.894531 232.984375 66.566406 232.785156 66.3125 C 232.582031 66.066406 232.320312 65.863281 231.992188 65.707031 C 231.664062 65.558594 231.324219 65.476562 230.957031 65.476562 C 230.359375 65.476562 229.847656 65.671875 229.421875 66.050781 C 229.109375 66.328125 228.871094 66.75 228.714844 67.304688 L 233.238281 67.304688 Z M 233.238281 67.3125 " clip-rule="nonzero"/></clipPath><clipPath id="7dccac5af4"><path d="M 235.429688 62.546875 L 236.214844 62.546875 L 236.214844 70.957031 L 235.429688 70.957031 Z M 235.429688 62.546875 " clip-rule="nonzero"/></clipPath><clipPath id="8b49ea93ce"><path d="M 237 64 L 244 64 L 244 72 L 237 72 Z M 237 64 " clip-rule="nonzero"/></clipPath><clipPath id="a0425548b1"><path d="M 240.710938 64.730469 C 241.640625 64.730469 242.417969 65.066406 243.035156 65.746094 C 243.597656 66.363281 243.871094 67.09375 243.871094 67.9375 C 243.871094 68.78125 243.574219 69.527344 242.984375 70.160156 C 242.394531 70.792969 241.636719 71.105469 240.710938 71.105469 C 239.785156 71.105469 239.019531 70.792969 238.429688 70.160156 C 237.839844 69.527344 237.542969 68.789062 237.542969 67.9375 C 237.542969 67.085938 237.816406 66.371094 238.375 65.753906 C 238.988281 65.074219 239.769531 64.730469 240.703125 64.730469 Z M 240.710938 65.492188 C 240.0625 65.492188 239.503906 65.730469 239.03125 66.207031 C 238.570312 66.683594 238.332031 67.265625 238.332031 67.945312 C 238.332031 68.382812 238.4375 68.792969 238.652344 69.175781 C 238.867188 69.554688 239.152344 69.847656 239.515625 70.054688 C 239.882812 70.261719 240.277344 70.367188 240.710938 70.367188 C 241.144531 70.367188 241.539062 70.261719 241.902344 70.054688 C 242.269531 69.847656 242.550781 69.554688 242.769531 69.175781 C 242.984375 68.792969 243.089844 68.382812 243.089844 67.945312 C 243.089844 67.265625 242.859375 66.683594 242.386719 66.207031 C 241.917969 65.730469 241.359375 65.492188 240.71875 65.492188 Z M 240.710938 65.492188 " clip-rule="nonzero"/></clipPath><clipPath id="8b95b3e715"><path d="M 245 64 L 252 64 L 252 73.003906 L 245 73.003906 Z M 245 64 " clip-rule="nonzero"/></clipPath><clipPath id="e57d5b0cfb"><path d="M 245.324219 64.886719 L 246.109375 64.886719 L 246.109375 66.007812 C 246.414062 65.582031 246.773438 65.269531 247.175781 65.050781 C 247.578125 64.835938 248.023438 64.730469 248.515625 64.730469 C 249.382812 64.730469 250.113281 65.042969 250.730469 65.664062 C 251.34375 66.28125 251.648438 67.027344 251.648438 67.90625 C 251.648438 68.789062 251.34375 69.554688 250.738281 70.179688 C 250.136719 70.800781 249.398438 71.113281 248.539062 71.113281 C 248.054688 71.113281 247.613281 71.015625 247.203125 70.816406 C 246.792969 70.613281 246.4375 70.316406 246.109375 69.921875 L 246.109375 73.1875 L 245.324219 73.1875 Z M 248.449219 65.484375 C 247.773438 65.484375 247.203125 65.722656 246.742188 66.191406 C 246.28125 66.664062 246.050781 67.25 246.050781 67.953125 C 246.050781 68.414062 246.152344 68.824219 246.355469 69.199219 C 246.5625 69.5625 246.855469 69.851562 247.242188 70.070312 C 247.621094 70.285156 248.03125 70.390625 248.457031 70.390625 C 248.882812 70.390625 249.269531 70.277344 249.644531 70.0625 C 250.015625 69.847656 250.308594 69.539062 250.523438 69.152344 C 250.738281 68.765625 250.851562 68.355469 250.851562 67.929688 C 250.851562 67.503906 250.738281 67.085938 250.523438 66.707031 C 250.308594 66.320312 250.015625 66.019531 249.644531 65.804688 C 249.269531 65.589844 248.875 65.484375 248.441406 65.484375 Z M 248.449219 65.484375 " clip-rule="nonzero"/></clipPath><clipPath id="e13d852272"><path d="M 253 64 L 263 64 L 263 71 L 253 71 Z M 253 64 " clip-rule="nonzero"/></clipPath><clipPath id="f5707b9aec"><path d="M 253.101562 64.886719 L 253.886719 64.886719 L 253.886719 65.9375 C 254.152344 65.550781 254.4375 65.269531 254.722656 65.089844 C 255.117188 64.851562 255.535156 64.730469 255.964844 64.730469 C 256.257812 64.730469 256.539062 64.789062 256.800781 64.902344 C 257.0625 65.023438 257.277344 65.171875 257.449219 65.363281 C 257.621094 65.558594 257.761719 65.828125 257.882812 66.183594 C 258.144531 65.707031 258.464844 65.351562 258.859375 65.097656 C 259.246094 64.851562 259.664062 64.722656 260.121094 64.722656 C 260.535156 64.722656 260.910156 64.828125 261.230469 65.042969 C 261.550781 65.253906 261.789062 65.550781 261.945312 65.929688 C 262.101562 66.3125 262.175781 66.878906 262.175781 67.640625 L 262.175781 70.949219 L 261.378906 70.949219 L 261.378906 67.640625 C 261.378906 66.992188 261.335938 66.542969 261.238281 66.296875 C 261.148438 66.050781 260.984375 65.855469 260.761719 65.707031 C 260.535156 65.558594 260.269531 65.484375 259.957031 65.484375 C 259.574219 65.484375 259.230469 65.597656 258.917969 65.820312 C 258.605469 66.042969 258.375 66.339844 258.234375 66.714844 C 258.089844 67.085938 258.015625 67.707031 258.015625 68.578125 L 258.015625 70.957031 L 257.234375 70.957031 L 257.234375 67.847656 C 257.234375 67.117188 257.1875 66.617188 257.097656 66.355469 C 257.011719 66.09375 256.847656 65.886719 256.621094 65.722656 C 256.398438 65.566406 256.121094 65.484375 255.816406 65.484375 C 255.457031 65.484375 255.117188 65.597656 254.804688 65.8125 C 254.488281 66.027344 254.257812 66.320312 254.109375 66.691406 C 253.960938 67.058594 253.886719 67.625 253.886719 68.382812 L 253.886719 70.957031 L 253.101562 70.957031 Z M 253.101562 64.886719 " clip-rule="nonzero"/></clipPath><clipPath id="29d97587d4"><path d="M 263 64 L 270 64 L 270 72 L 263 72 Z M 263 64 " clip-rule="nonzero"/></clipPath><clipPath id="6269326dd8"><path d="M 268.933594 68.945312 L 269.589844 69.285156 C 269.371094 69.710938 269.125 70.054688 268.84375 70.316406 C 268.558594 70.578125 268.238281 70.777344 267.890625 70.914062 C 267.539062 71.046875 267.136719 71.113281 266.6875 71.113281 C 265.695312 71.113281 264.921875 70.792969 264.371094 70.144531 C 263.816406 69.496094 263.535156 68.765625 263.535156 67.945312 C 263.535156 67.175781 263.773438 66.492188 264.242188 65.886719 C 264.839844 65.117188 265.644531 64.738281 266.652344 64.738281 C 267.65625 64.738281 268.515625 65.132812 269.125 65.917969 C 269.566406 66.46875 269.789062 67.160156 269.796875 67.988281 L 264.339844 67.988281 C 264.355469 68.691406 264.578125 69.273438 265.019531 69.71875 C 265.457031 70.167969 265.996094 70.398438 266.628906 70.398438 C 266.933594 70.398438 267.238281 70.34375 267.53125 70.234375 C 267.820312 70.128906 268.066406 69.988281 268.277344 69.808594 C 268.484375 69.628906 268.703125 69.347656 268.941406 68.945312 Z M 268.933594 67.3125 C 268.828125 66.894531 268.679688 66.566406 268.476562 66.3125 C 268.277344 66.066406 268.015625 65.863281 267.6875 65.707031 C 267.359375 65.558594 267.015625 65.476562 266.652344 65.476562 C 266.054688 65.476562 265.539062 65.671875 265.113281 66.050781 C 264.800781 66.328125 264.5625 66.75 264.40625 67.304688 L 268.933594 67.304688 Z M 268.933594 67.3125 " clip-rule="nonzero"/></clipPath><clipPath id="80eb5a1738"><path d="M 271 64 L 277 64 L 277 71 L 271 71 Z M 271 64 " clip-rule="nonzero"/></clipPath><clipPath id="34281d2673"><path d="M 271.242188 64.886719 L 272.027344 64.886719 L 272.027344 65.976562 C 272.339844 65.558594 272.683594 65.246094 273.0625 65.042969 C 273.445312 64.835938 273.855469 64.730469 274.300781 64.730469 C 274.75 64.730469 275.160156 64.84375 275.507812 65.074219 C 275.859375 65.304688 276.121094 65.617188 276.285156 66.007812 C 276.449219 66.394531 276.539062 67.003906 276.539062 67.832031 L 276.539062 70.957031 L 275.753906 70.957031 L 275.753906 68.0625 C 275.753906 67.363281 275.726562 66.902344 275.664062 66.664062 C 275.578125 66.257812 275.40625 65.960938 275.144531 65.761719 C 274.890625 65.558594 274.554688 65.453125 274.136719 65.453125 C 273.667969 65.453125 273.242188 65.609375 272.871094 65.925781 C 272.496094 66.238281 272.25 66.625 272.132812 67.085938 C 272.058594 67.386719 272.019531 67.9375 272.019531 68.734375 L 272.019531 70.957031 L 271.238281 70.957031 L 271.238281 64.886719 Z M 271.242188 64.886719 " clip-rule="nonzero"/></clipPath><clipPath id="25ce9a603f"><path d="M 278.894531 62.636719 L 279.675781 62.636719 L 279.675781 64.886719 L 278.894531 64.886719 Z M 277.828125 64.886719 L 280.914062 64.886719 L 280.914062 65.566406 L 277.828125 65.566406 Z M 278.894531 65.566406 L 279.675781 65.566406 L 279.675781 70.957031 L 278.894531 70.957031 Z M 278.894531 65.566406 " clip-rule="nonzero"/></clipPath><clipPath id="c1f1075e4c"><path d="M 3.597656 28.300781 L 53.734375 28.300781 L 53.734375 29.371094 L 3.597656 29.371094 Z M 3.597656 28.300781 " clip-rule="nonzero"/></clipPath><clipPath id="5281912813"><path d="M 18 18 L 25 18 L 25 25 L 18 25 Z M 18 18 " clip-rule="nonzero"/></clipPath><clipPath id="4e42eda3a1"><path d="M 23.753906 24.210938 L 18.335938 18.789062 L 18.621094 18.503906 L 24.039062 23.925781 Z M 23.753906 24.210938 " clip-rule="nonzero"/></clipPath><clipPath id="8df8220d90"><path d="M 11 11 L 17 11 L 17 18 L 11 18 Z M 11 11 " clip-rule="nonzero"/></clipPath><clipPath id="e02cea691e"><path d="M 16.707031 17.160156 L 11.289062 11.738281 L 11.574219 11.453125 L 16.992188 16.875 Z M 16.707031 17.160156 " clip-rule="nonzero"/></clipPath><clipPath id="aad9fadab9"><path d="M 3 4 L 10 4 L 10 10 L 3 10 Z M 3 4 " clip-rule="nonzero"/></clipPath><clipPath id="ffb2d150b2"><path d="M 9.386719 9.84375 L 3.96875 4.425781 L 4.253906 4.140625 L 9.671875 9.558594 Z M 9.386719 9.84375 " clip-rule="nonzero"/></clipPath><clipPath id="c10c65d710"><path d="M 10 20 L 15 20 L 15 25 L 10 25 Z M 10 20 " clip-rule="nonzero"/></clipPath><clipPath id="e4108562ec"><path d="M 14.378906 24.019531 L 10.804688 20.445312 L 11.089844 20.160156 L 14.664062 23.738281 Z M 14.378906 24.019531 " clip-rule="nonzero"/></clipPath><clipPath id="6f9248e4ec"><path d="M 4 14 L 9 14 L 9 18 L 4 18 Z M 4 14 " clip-rule="nonzero"/></clipPath><clipPath id="14e088a057"><path d="M 8.273438 17.917969 L 4.699219 14.339844 L 4.984375 14.058594 L 8.558594 17.632812 Z M 8.273438 17.917969 " clip-rule="nonzero"/></clipPath><clipPath id="0b3c3fae8f"><path d="M 19 10 L 24 10 L 24 15 L 19 15 Z M 19 10 " clip-rule="nonzero"/></clipPath><clipPath id="abefbe6215"><path d="M 23.378906 14.75 L 19.804688 11.175781 L 20.089844 10.890625 L 23.664062 14.464844 Z M 23.378906 14.75 " clip-rule="nonzero"/></clipPath><clipPath id="0b20ad3623"><path d="M 13 4 L 18 4 L 18 9 L 13 9 Z M 13 4 " clip-rule="nonzero"/></clipPath><clipPath id="1e54bf4152"><path d="M 17.277344 8.640625 L 13.703125 5.066406 L 13.988281 4.78125 L 17.5625 8.355469 Z M 17.277344 8.640625 " clip-rule="nonzero"/></clipPath><clipPath id="1e3648d7ec"><path d="M 47 47 L 53 47 L 53 53 L 47 53 Z M 47 47 " clip-rule="nonzero"/></clipPath><clipPath id="d9e7a84779"><path d="M 52.441406 52.898438 L 47.019531 47.476562 L 47.304688 47.191406 L 52.726562 52.613281 Z M 52.441406 52.898438 " clip-rule="nonzero"/></clipPath><clipPath id="4a58aad1eb"><path d="M 39 40 L 46 40 L 46 46 L 39 46 Z M 39 40 " clip-rule="nonzero"/></clipPath><clipPath id="5e30cada67"><path d="M 45.398438 45.859375 L 39.980469 40.4375 L 40.265625 40.15625 L 45.683594 45.574219 Z M 45.398438 45.859375 " clip-rule="nonzero"/></clipPath><clipPath id="8a170a9298"><path d="M 32 32 L 39 32 L 39 39 L 32 39 Z M 32 32 " clip-rule="nonzero"/></clipPath><clipPath id="c3df582cd6"><path d="M 38.085938 38.539062 L 32.664062 33.121094 L 32.949219 32.835938 L 38.371094 38.253906 Z M 38.085938 38.539062 " clip-rule="nonzero"/></clipPath><clipPath id="2b35cd9fec"><path d="M 39 48 L 44 48 L 44 53 L 39 53 Z M 39 48 " clip-rule="nonzero"/></clipPath><clipPath id="86d56d9411"><path d="M 43.070312 52.714844 L 39.496094 49.140625 L 39.78125 48.855469 L 43.355469 52.429688 Z M 43.070312 52.714844 " clip-rule="nonzero"/></clipPath><clipPath id="f76a1a249d"><path d="M 33 42 L 38 42 L 38 47 L 33 47 Z M 33 42 " clip-rule="nonzero"/></clipPath><clipPath id="bc9f61bf32"><path d="M 36.972656 46.609375 L 33.398438 43.035156 L 33.683594 42.75 L 37.257812 46.324219 Z M 36.972656 46.609375 " clip-rule="nonzero"/></clipPath><clipPath id="94c13d32fd"><path d="M 48 39 L 53 39 L 53 44 L 48 44 Z M 48 39 " clip-rule="nonzero"/></clipPath><clipPath id="4da28eb85d"><path d="M 52.074219 43.4375 L 48.5 39.863281 L 48.785156 39.578125 L 52.359375 43.152344 Z M 52.074219 43.4375 " clip-rule="nonzero"/></clipPath><clipPath id="e0eee11371"><path d="M 42 33 L 47 33 L 47 38 L 42 38 Z M 42 33 " clip-rule="nonzero"/></clipPath><clipPath id="952e27c5d7"><path d="M 45.964844 37.335938 L 42.390625 33.757812 L 42.675781 33.476562 L 46.25 37.050781 Z M 45.964844 37.335938 " clip-rule="nonzero"/></clipPath><clipPath id="06ad06b238"><path d="M 18 46 L 25 46 L 25 53 L 18 53 Z M 18 46 " clip-rule="nonzero"/></clipPath><clipPath id="4ca350dcb7"><path d="M 23.886719 52.480469 L 18.46875 47.0625 L 18.753906 46.777344 L 24.171875 52.195312 Z M 23.886719 52.480469 " clip-rule="nonzero"/></clipPath><clipPath id="d79ac343ed"><path d="M 11 39 L 18 39 L 18 46 L 11 46 Z M 11 39 " clip-rule="nonzero"/></clipPath><clipPath id="e9474a5e99"><path d="M 16.835938 45.4375 L 11.414062 40.019531 L 11.699219 39.734375 L 17.121094 45.152344 Z M 16.835938 45.4375 " clip-rule="nonzero"/></clipPath><clipPath id="7cbe37053e"><path d="M 4 32 L 10 32 L 10 39 L 4 39 Z M 4 32 " clip-rule="nonzero"/></clipPath><clipPath id="f940a3478b"><path d="M 9.519531 38.117188 L 4.101562 32.699219 L 4.382812 32.414062 L 9.804688 37.835938 Z M 9.519531 38.117188 " clip-rule="nonzero"/></clipPath><clipPath id="47b90cfed2"><path d="M 10 48 L 15 48 L 15 53 L 10 53 Z M 10 48 " clip-rule="nonzero"/></clipPath><clipPath id="75814cdc42"><path d="M 14.511719 52.292969 L 10.9375 48.71875 L 11.222656 48.433594 L 14.796875 52.007812 Z M 14.511719 52.292969 " clip-rule="nonzero"/></clipPath><clipPath id="029bfb49bc"><path d="M 4 42 L 9 42 L 9 47 L 4 47 Z M 4 42 " clip-rule="nonzero"/></clipPath><clipPath id="8462d59b86"><path d="M 8.40625 46.1875 L 4.832031 42.613281 L 5.117188 42.328125 L 8.691406 45.902344 Z M 8.40625 46.1875 " clip-rule="nonzero"/></clipPath><clipPath id="15dfb9c82f"><path d="M 19 39 L 24 39 L 24 44 L 19 44 Z M 19 39 " clip-rule="nonzero"/></clipPath><clipPath id="057435d0a6"><path d="M 23.515625 43.015625 L 19.941406 39.441406 L 20.226562 39.15625 L 23.800781 42.730469 Z M 23.515625 43.015625 " clip-rule="nonzero"/></clipPath><clipPath id="130899c385"><path d="M 13 33 L 18 33 L 18 37 L 13 37 Z M 13 33 " clip-rule="nonzero"/></clipPath><clipPath id="10dd4568ca"><path d="M 17.410156 36.917969 L 13.835938 33.34375 L 14.121094 33.058594 L 17.695312 36.632812 Z M 17.410156 36.917969 " clip-rule="nonzero"/></clipPath><clipPath id="f547a11a24"><path d="M 46 18 L 53 18 L 53 25 L 46 25 Z M 46 18 " clip-rule="nonzero"/></clipPath><clipPath id="aad4beeb6b"><path d="M 51.96875 24.667969 L 46.546875 19.246094 L 46.832031 18.964844 L 52.253906 24.382812 Z M 51.96875 24.667969 " clip-rule="nonzero"/></clipPath><clipPath id="7c923812a4"><path d="M 39 11 L 46 11 L 46 18 L 39 18 Z M 39 11 " clip-rule="nonzero"/></clipPath><clipPath id="877b4340af"><path d="M 44.914062 17.617188 L 39.492188 12.199219 L 39.777344 11.914062 L 45.199219 17.332031 Z M 44.914062 17.617188 " clip-rule="nonzero"/></clipPath><clipPath id="ee21923eac"><path d="M 32 4 L 38 4 L 38 11 L 32 11 Z M 32 4 " clip-rule="nonzero"/></clipPath><clipPath id="bd840ae4e3"><path d="M 37.605469 10.304688 L 32.183594 4.882812 L 32.46875 4.597656 L 37.890625 10.019531 Z M 37.605469 10.304688 " clip-rule="nonzero"/></clipPath><clipPath id="175ffaf69c"><path d="M 39 20 L 43 20 L 43 25 L 39 25 Z M 39 20 " clip-rule="nonzero"/></clipPath><clipPath id="b298efe5fa"><path d="M 42.597656 24.484375 L 39.023438 20.910156 L 39.308594 20.625 L 42.882812 24.199219 Z M 42.597656 24.484375 " clip-rule="nonzero"/></clipPath><clipPath id="55307702eb"><path d="M 32 14 L 37 14 L 37 19 L 32 19 Z M 32 14 " clip-rule="nonzero"/></clipPath><clipPath id="581145367c"><path d="M 36.492188 18.378906 L 32.917969 14.804688 L 33.199219 14.519531 L 36.777344 18.09375 Z M 36.492188 18.378906 " clip-rule="nonzero"/></clipPath><clipPath id="1938e3ff1e"><path d="M 48 11 L 52 11 L 52 16 L 48 16 Z M 48 11 " clip-rule="nonzero"/></clipPath><clipPath id="d6610a3fd5"><path d="M 51.597656 15.203125 L 48.023438 11.628906 L 48.308594 11.34375 L 51.882812 14.917969 Z M 51.597656 15.203125 " clip-rule="nonzero"/></clipPath><clipPath id="5ed2126944"><path d="M 41 5 L 46 5 L 46 10 L 41 10 Z M 41 5 " clip-rule="nonzero"/></clipPath><clipPath id="e6ac5096dd"><path d="M 45.488281 9.097656 L 41.914062 5.523438 L 42.199219 5.238281 L 45.773438 8.8125 Z M 45.488281 9.097656 " clip-rule="nonzero"/></clipPath><clipPath id="f8d58d1c34"><path d="M 55.285156 1.023438 L 56.480469 1.023438 L 56.480469 56.648438 L 55.285156 56.648438 Z M 55.285156 1.023438 " clip-rule="nonzero"/></clipPath><clipPath id="44f1e6f016"><path d="M 50.535156 0 L 56.480469 0 L 56.480469 1.023438 L 50.535156 1.023438 Z M 50.535156 0 " clip-rule="nonzero"/></clipPath><clipPath id="cd16156b37"><path d="M 50.535156 55.457031 L 56.480469 55.457031 L 56.480469 56.648438 L 50.535156 56.648438 Z M 50.535156 55.457031 " clip-rule="nonzero"/></clipPath><clipPath id="60b4c9406f"><path d="M 28.128906 3.386719 L 29.203125 3.386719 L 29.203125 53.523438 L 28.128906 53.523438 Z M 28.128906 3.386719 " clip-rule="nonzero"/></clipPath><clipPath id="fea41f1fe6"><path d="M 1.035156 1.023438 L 2.226562 1.023438 L 2.226562 56.648438 L 1.035156 56.648438 Z M 1.035156 1.023438 " clip-rule="nonzero"/></clipPath><clipPath id="d83a89e981"><path d="M 1.035156 0 L 6.976562 0 L 6.976562 1.023438 L 1.035156 1.023438 Z M 1.035156 0 " clip-rule="nonzero"/></clipPath><clipPath id="262abfff1e"><path d="M 1.035156 55.460938 L 6.976562 55.460938 L 6.976562 56.65625 L 1.035156 56.65625 Z M 1.035156 55.460938 " clip-rule="nonzero"/></clipPath></defs><g clip-path="url(#e6851ba049)"><g clip-path="url(#c35cfde4fc)"><path fill="#ffffff" d="M 64.382812 6.140625 L 64.382812 46.410156 L 95.707031 46.410156 L 95.707031 6.140625 Z M 64.382812 6.140625 " fill-opacity="1" fill-rule="nonzero"/></g></g><g clip-path="url(#27858d0b7d)"><path fill="#ffffff" d="M 103.261719 6.140625 L 103.261719 46.410156 L 107.867188 46.410156 L 107.867188 6.140625 Z M 103.261719 6.140625 " fill-opacity="1" fill-rule="nonzero"/></g><g clip-path="url(#f87fbba066)"><g clip-path="url(#e9151de654)"><path fill="#ffffff" d="M 115.421875 17.613281 L 115.421875 57.902344 L 139.289062 57.902344 L 139.289062 17.613281 Z M 115.421875 17.613281 " fill-opacity="1" fill-rule="nonzero"/></g></g><g clip-path="url(#02dcd32e53)"><path fill="#ffffff" d="M 146.125 27.203125 L 146.125 30.773438 L 167.503906 30.773438 L 167.503906 27.203125 Z M 146.125 27.203125 " fill-opacity="1" fill-rule="nonzero"/></g><g clip-path="url(#8acb580954)"><g clip-path="url(#77653311ca)"><path fill="#ffffff" d="M 174.386719 6.140625 L 174.386719 46.417969 L 212.078125 46.417969 L 212.078125 6.140625 Z M 174.386719 6.140625 " fill-opacity="1" fill-rule="nonzero"/></g></g><g clip-path="url(#a66d242925)"><g clip-path="url(#5efce5c73e)"><path fill="#ffffff" d="M 218.914062 17.628906 L 218.914062 46.417969 L 242.785156 46.417969 L 242.785156 17.628906 Z M 218.914062 17.628906 " fill-opacity="1" fill-rule="nonzero"/></g></g><g clip-path="url(#c0d7bb2a7b)"><g clip-path="url(#950ddceb0b)"><path fill="#ffffff" d="M 251.007812 6.496094 L 251.007812 46.410156 L 264.527344 46.410156 L 264.527344 6.496094 Z M 251.007812 6.496094 " fill-opacity="1" fill-rule="nonzero"/></g></g><g clip-path="url(#231d8741b5)"><g clip-path="url(#f09b63bcc8)"><path fill="#ffffff" d="M 269.230469 17.628906 L 269.230469 46.417969 L 284.917969 46.417969 L 284.917969 17.628906 Z M 269.230469 17.628906 " fill-opacity="1" fill-rule="nonzero"/></g></g><g clip-path="url(#dc21a1127f)"><path fill="#ffffff" d="M 289.003906 6.140625 L 289.003906 46.410156 L 293.613281 46.410156 L 293.613281 6.140625 Z M 289.003906 6.140625 " fill-opacity="1" fill-rule="nonzero"/></g><g clip-path="url(#ff8afd49bf)"><g clip-path="url(#5cc980ce0e)"><path fill="#ffffff" d="M 282.667969 17.621094 L 282.667969 70.949219 L 323.902344 70.949219 L 323.902344 17.621094 Z M 282.667969 17.621094 " fill-opacity="1" fill-rule="nonzero"/></g></g><g clip-path="url(#570d7230d7)"><path fill="#ffffff" d="M 324.078125 6.421875 L 324.078125 14.214844 L 329.867188 14.214844 L 329.867188 6.421875 Z M 324.078125 6.421875 " fill-opacity="1" fill-rule="nonzero"/></g><g clip-path="url(#bbbffa891b)"><g clip-path="url(#02e16e6e7b)"><path fill="#ffffff" d="M 330.402344 8.644531 L 330.402344 14.207031 L 335.21875 14.207031 L 335.21875 8.644531 Z M 330.402344 8.644531 " fill-opacity="1" fill-rule="nonzero"/></g></g><g clip-path="url(#a6ffede23d)"><g clip-path="url(#464f603e0a)"><path fill="#ffffff" d="M 336.652344 6.421875 L 336.652344 14.214844 L 341.46875 14.214844 L 341.46875 6.421875 Z M 336.652344 6.421875 " fill-opacity="1" fill-rule="nonzero"/></g></g><g clip-path="url(#aea0b4e1cb)"><g clip-path="url(#e255e7177b)"><path fill="#ffffff" d="M 139.257812 62.746094 L 139.257812 70.957031 L 144.507812 70.957031 L 144.507812 62.746094 Z M 139.257812 62.746094 " fill-opacity="1" fill-rule="nonzero"/></g></g><g clip-path="url(#38e7a76275)"><g clip-path="url(#bbfad3d90f)"><path fill="#ffffff" d="M 145.738281 64.738281 L 145.738281 71.113281 L 152.003906 71.113281 L 152.003906 64.738281 Z M 145.738281 64.738281 " fill-opacity="1" fill-rule="nonzero"/></g></g><g clip-path="url(#54f4232964)"><g clip-path="url(#6a78c978b7)"><path fill="#ffffff" d="M 152.898438 64.761719 L 152.898438 71.128906 L 156.519531 71.128906 L 156.519531 64.761719 Z M 152.898438 64.761719 " fill-opacity="1" fill-rule="nonzero"/></g></g><g clip-path="url(#afab08dee0)"><g clip-path="url(#7708776cbb)"><path fill="#ffffff" d="M 157.59375 64.738281 L 157.59375 71.113281 L 163.859375 71.113281 L 163.859375 64.738281 Z M 157.59375 64.738281 " fill-opacity="1" fill-rule="nonzero"/></g></g><g clip-path="url(#2174f72a19)"><g clip-path="url(#b55569d6cb)"><path fill="#ffffff" d="M 165.042969 64.722656 L 165.042969 71.105469 L 171.359375 71.105469 L 171.359375 64.722656 Z M 165.042969 64.722656 " fill-opacity="1" fill-rule="nonzero"/></g></g><g clip-path="url(#1162bb5fe4)"><g clip-path="url(#93bc7a860d)"><path fill="#ffffff" d="M 172.820312 64.730469 L 172.820312 70.949219 L 175.890625 70.949219 L 175.890625 64.730469 Z M 172.820312 64.730469 " fill-opacity="1" fill-rule="nonzero"/></g></g><g clip-path="url(#79a361863e)"><g clip-path="url(#296654b915)"><path fill="#ffffff" d="M 176.265625 64.722656 L 176.265625 71.105469 L 182.4375 71.105469 L 182.4375 64.722656 Z M 176.265625 64.722656 " fill-opacity="1" fill-rule="nonzero"/></g></g><g clip-path="url(#55ab2b886c)"><g clip-path="url(#ea33ef378e)"><path fill="#ffffff" d="M 183.9375 62.546875 L 183.9375 70.957031 L 189.230469 70.957031 L 189.230469 62.546875 Z M 183.9375 62.546875 " fill-opacity="1" fill-rule="nonzero"/></g></g><g clip-path="url(#16c2210309)"><g clip-path="url(#95095ddfc1)"><path fill="#ffffff" d="M 194.199219 63.054688 L 194.199219 71.164062 L 201.550781 71.164062 L 201.550781 63.054688 Z M 194.199219 63.054688 " fill-opacity="1" fill-rule="nonzero"/></g></g><g clip-path="url(#1b9fa37d24)"><g clip-path="url(#5adc5b181a)"><path fill="#ffffff" d="M 205.992188 62.753906 L 205.992188 70.957031 L 212.90625 70.957031 L 212.90625 62.753906 Z M 205.992188 62.753906 " fill-opacity="1" fill-rule="nonzero"/></g></g><g clip-path="url(#946eeb8872)"><g clip-path="url(#d6c1c11808)"><path fill="#ffffff" d="M 214.082031 64.738281 L 214.082031 71.113281 L 220.347656 71.113281 L 220.347656 64.738281 Z M 214.082031 64.738281 " fill-opacity="1" fill-rule="nonzero"/></g></g><g clip-path="url(#79b27ea3fa)"><g clip-path="url(#2cbaff616e)"><path fill="#ffffff" d="M 221.21875 64.886719 L 221.21875 70.957031 L 226.9375 70.957031 L 226.9375 64.886719 Z M 221.21875 64.886719 " fill-opacity="1" fill-rule="nonzero"/></g></g><g clip-path="url(#07578deb93)"><g clip-path="url(#4636f05dca)"><path fill="#ffffff" d="M 227.839844 64.738281 L 227.839844 71.113281 L 234.105469 71.113281 L 234.105469 64.738281 Z M 227.839844 64.738281 " fill-opacity="1" fill-rule="nonzero"/></g></g><g clip-path="url(#7dccac5af4)"><path fill="#ffffff" d="M 235.429688 62.546875 L 235.429688 70.957031 L 236.214844 70.957031 L 236.214844 62.546875 Z M 235.429688 62.546875 " fill-opacity="1" fill-rule="nonzero"/></g><g clip-path="url(#8b49ea93ce)"><g clip-path="url(#a0425548b1)"><path fill="#ffffff" d="M 237.542969 64.730469 L 237.542969 71.105469 L 243.871094 71.105469 L 243.871094 64.730469 Z M 237.542969 64.730469 " fill-opacity="1" fill-rule="nonzero"/></g></g><g clip-path="url(#8b95b3e715)"><g clip-path="url(#e57d5b0cfb)"><path fill="#ffffff" d="M 245.324219 64.730469 L 245.324219 73.003906 L 251.648438 73.003906 L 251.648438 64.730469 Z M 245.324219 64.730469 " fill-opacity="1" fill-rule="nonzero"/></g></g><g clip-path="url(#e13d852272)"><g clip-path="url(#f5707b9aec)"><path fill="#ffffff" d="M 253.101562 64.722656 L 253.101562 70.957031 L 262.175781 70.957031 L 262.175781 64.722656 Z M 253.101562 64.722656 " fill-opacity="1" fill-rule="nonzero"/></g></g><g clip-path="url(#29d97587d4)"><g clip-path="url(#6269326dd8)"><path fill="#ffffff" d="M 263.535156 64.738281 L 263.535156 71.113281 L 269.796875 71.113281 L 269.796875 64.738281 Z M 263.535156 64.738281 " fill-opacity="1" fill-rule="nonzero"/></g></g><g clip-path="url(#80eb5a1738)"><g clip-path="url(#34281d2673)"><path fill="#ffffff" d="M 271.238281 64.730469 L 271.238281 70.957031 L 276.539062 70.957031 L 276.539062 64.730469 Z M 271.238281 64.730469 " fill-opacity="1" fill-rule="nonzero"/></g></g><g clip-path="url(#25ce9a603f)"><path fill="#ffffff" d="M 277.828125 62.636719 L 277.828125 70.957031 L 280.914062 70.957031 L 280.914062 62.636719 Z M 277.828125 62.636719 " fill-opacity="1" fill-rule="nonzero"/></g><g clip-path="url(#c1f1075e4c)"><path fill="#ffffff" d="M 3.597656 28.300781 L 3.597656 29.371094 L 53.734375 29.371094 L 53.734375 28.300781 Z M 3.597656 28.300781 " fill-opacity="1" fill-rule="nonzero"/></g><g clip-path="url(#5281912813)"><g clip-path="url(#4e42eda3a1)"><path fill="#ffffff" d="M 18.335938 18.503906 L 18.335938 24.210938 L 24.039062 24.210938 L 24.039062 18.503906 Z M 18.335938 18.503906 " fill-opacity="1" fill-rule="nonzero"/></g></g><g clip-path="url(#8df8220d90)"><g clip-path="url(#e02cea691e)"><path fill="#ffffff" d="M 11.289062 11.453125 L 11.289062 17.160156 L 16.992188 17.160156 L 16.992188 11.453125 Z M 11.289062 11.453125 " fill-opacity="1" fill-rule="nonzero"/></g></g><g clip-path="url(#aad9fadab9)"><g clip-path="url(#ffb2d150b2)"><path fill="#ffffff" d="M 3.96875 4.140625 L 3.96875 9.84375 L 9.671875 9.84375 L 9.671875 4.140625 Z M 3.96875 4.140625 " fill-opacity="1" fill-rule="nonzero"/></g></g><g clip-path="url(#c10c65d710)"><g clip-path="url(#e4108562ec)"><path fill="#ffffff" d="M 10.804688 20.160156 L 10.804688 24.019531 L 14.664062 24.019531 L 14.664062 20.160156 Z M 10.804688 20.160156 " fill-opacity="1" fill-rule="nonzero"/></g></g><g clip-path="url(#6f9248e4ec)"><g clip-path="url(#14e088a057)"><path fill="#ffffff" d="M 4.699219 14.058594 L 4.699219 17.917969 L 8.558594 17.917969 L 8.558594 14.058594 Z M 4.699219 14.058594 " fill-opacity="1" fill-rule="nonzero"/></g></g><g clip-path="url(#0b3c3fae8f)"><g clip-path="url(#abefbe6215)"><path fill="#ffffff" d="M 19.804688 10.890625 L 19.804688 14.75 L 23.664062 14.75 L 23.664062 10.890625 Z M 19.804688 10.890625 " fill-opacity="1" fill-rule="nonzero"/></g></g><g clip-path="url(#0b20ad3623)"><g clip-path="url(#1e54bf4152)"><path fill="#ffffff" d="M 13.703125 4.78125 L 13.703125 8.640625 L 17.5625 8.640625 L 17.5625 4.78125 Z M 13.703125 4.78125 " fill-opacity="1" fill-rule="nonzero"/></g></g><g clip-path="url(#1e3648d7ec)"><g clip-path="url(#d9e7a84779)"><path fill="#ffffff" d="M 47.019531 47.191406 L 47.019531 52.898438 L 52.726562 52.898438 L 52.726562 47.191406 Z M 47.019531 47.191406 " fill-opacity="1" fill-rule="nonzero"/></g></g><g clip-path="url(#4a58aad1eb)"><g clip-path="url(#5e30cada67)"><path fill="#ffffff" d="M 39.980469 40.15625 L 39.980469 45.859375 L 45.683594 45.859375 L 45.683594 40.15625 Z M 39.980469 40.15625 " fill-opacity="1" fill-rule="nonzero"/></g></g><g clip-path="url(#8a170a9298)"><g clip-path="url(#c3df582cd6)"><path fill="#ffffff" d="M 32.664062 32.835938 L 32.664062 38.539062 L 38.371094 38.539062 L 38.371094 32.835938 Z M 32.664062 32.835938 " fill-opacity="1" fill-rule="nonzero"/></g></g><g clip-path="url(#2b35cd9fec)"><g clip-path="url(#86d56d9411)"><path fill="#ffffff" d="M 39.496094 48.855469 L 39.496094 52.714844 L 43.355469 52.714844 L 43.355469 48.855469 Z M 39.496094 48.855469 " fill-opacity="1" fill-rule="nonzero"/></g></g><g clip-path="url(#f76a1a249d)"><g clip-path="url(#bc9f61bf32)"><path fill="#ffffff" d="M 33.398438 42.75 L 33.398438 46.609375 L 37.257812 46.609375 L 37.257812 42.75 Z M 33.398438 42.75 " fill-opacity="1" fill-rule="nonzero"/></g></g><g clip-path="url(#94c13d32fd)"><g clip-path="url(#4da28eb85d)"><path fill="#ffffff" d="M 48.5 39.578125 L 48.5 43.4375 L 52.359375 43.4375 L 52.359375 39.578125 Z M 48.5 39.578125 " fill-opacity="1" fill-rule="nonzero"/></g></g><g clip-path="url(#e0eee11371)"><g clip-path="url(#952e27c5d7)"><path fill="#ffffff" d="M 42.390625 33.476562 L 42.390625 37.335938 L 46.25 37.335938 L 46.25 33.476562 Z M 42.390625 33.476562 " fill-opacity="1" fill-rule="nonzero"/></g></g><g clip-path="url(#06ad06b238)"><g clip-path="url(#4ca350dcb7)"><path fill="#ffffff" d="M 18.46875 46.777344 L 18.46875 52.480469 L 24.171875 52.480469 L 24.171875 46.777344 Z M 18.46875 46.777344 " fill-opacity="1" fill-rule="nonzero"/></g></g><g clip-path="url(#d79ac343ed)"><g clip-path="url(#e9474a5e99)"><path fill="#ffffff" d="M 11.414062 39.734375 L 11.414062 45.4375 L 17.121094 45.4375 L 17.121094 39.734375 Z M 11.414062 39.734375 " fill-opacity="1" fill-rule="nonzero"/></g></g><g clip-path="url(#7cbe37053e)"><g clip-path="url(#f940a3478b)"><path fill="#ffffff" d="M 4.101562 32.414062 L 4.101562 38.117188 L 9.804688 38.117188 L 9.804688 32.414062 Z M 4.101562 32.414062 " fill-opacity="1" fill-rule="nonzero"/></g></g><g clip-path="url(#47b90cfed2)"><g clip-path="url(#75814cdc42)"><path fill="#ffffff" d="M 10.9375 48.433594 L 10.9375 52.292969 L 14.796875 52.292969 L 14.796875 48.433594 Z M 10.9375 48.433594 " fill-opacity="1" fill-rule="nonzero"/></g></g><g clip-path="url(#029bfb49bc)"><g clip-path="url(#8462d59b86)"><path fill="#ffffff" d="M 4.832031 42.328125 L 4.832031 46.1875 L 8.691406 46.1875 L 8.691406 42.328125 Z M 4.832031 42.328125 " fill-opacity="1" fill-rule="nonzero"/></g></g><g clip-path="url(#15dfb9c82f)"><g clip-path="url(#057435d0a6)"><path fill="#ffffff" d="M 19.941406 39.15625 L 19.941406 43.015625 L 23.800781 43.015625 L 23.800781 39.15625 Z M 19.941406 39.15625 " fill-opacity="1" fill-rule="nonzero"/></g></g><g clip-path="url(#130899c385)"><g clip-path="url(#10dd4568ca)"><path fill="#ffffff" d="M 13.835938 33.058594 L 13.835938 36.917969 L 17.695312 36.917969 L 17.695312 33.058594 Z M 13.835938 33.058594 " fill-opacity="1" fill-rule="nonzero"/></g></g><g clip-path="url(#f547a11a24)"><g clip-path="url(#aad4beeb6b)"><path fill="#ffffff" d="M 46.546875 18.964844 L 46.546875 24.667969 L 52.253906 24.667969 L 52.253906 18.964844 Z M 46.546875 18.964844 " fill-opacity="1" fill-rule="nonzero"/></g></g><g clip-path="url(#7c923812a4)"><g clip-path="url(#877b4340af)"><path fill="#ffffff" d="M 39.492188 11.914062 L 39.492188 17.617188 L 45.199219 17.617188 L 45.199219 11.914062 Z M 39.492188 11.914062 " fill-opacity="1" fill-rule="nonzero"/></g></g><g clip-path="url(#ee21923eac)"><g clip-path="url(#bd840ae4e3)"><path fill="#ffffff" d="M 32.183594 4.597656 L 32.183594 10.304688 L 37.890625 10.304688 L 37.890625 4.597656 Z M 32.183594 4.597656 " fill-opacity="1" fill-rule="nonzero"/></g></g><g clip-path="url(#175ffaf69c)"><g clip-path="url(#b298efe5fa)"><path fill="#ffffff" d="M 39.023438 20.625 L 39.023438 24.484375 L 42.882812 24.484375 L 42.882812 20.625 Z M 39.023438 20.625 " fill-opacity="1" fill-rule="nonzero"/></g></g><g clip-path="url(#55307702eb)"><g clip-path="url(#581145367c)"><path fill="#ffffff" d="M 32.917969 14.519531 L 32.917969 18.378906 L 36.777344 18.378906 L 36.777344 14.519531 Z M 32.917969 14.519531 " fill-opacity="1" fill-rule="nonzero"/></g></g><g clip-path="url(#1938e3ff1e)"><g clip-path="url(#d6610a3fd5)"><path fill="#ffffff" d="M 48.023438 11.34375 L 48.023438 15.203125 L 51.882812 15.203125 L 51.882812 11.34375 Z M 48.023438 11.34375 " fill-opacity="1" fill-rule="nonzero"/></g></g><g clip-path="url(#5ed2126944)"><g clip-path="url(#e6ac5096dd)"><path fill="#ffffff" d="M 41.914062 5.238281 L 41.914062 9.097656 L 45.773438 9.097656 L 45.773438 5.238281 Z M 41.914062 5.238281 " fill-opacity="1" fill-rule="nonzero"/></g></g><g clip-path="url(#f8d58d1c34)"><path fill="#ffffff" d="M 55.285156 1.023438 L 55.285156 56.648438 L 56.480469 56.648438 L 56.480469 1.023438 Z M 55.285156 1.023438 " fill-opacity="1" fill-rule="nonzero"/></g><g clip-path="url(#44f1e6f016)"><path fill="#ffffff" d="M 50.535156 0 L 50.535156 1.023438 L 56.480469 1.023438 L 56.480469 0 Z M 50.535156 0 " fill-opacity="1" fill-rule="nonzero"/></g><g clip-path="url(#cd16156b37)"><path fill="#ffffff" d="M 50.535156 55.457031 L 50.535156 56.648438 L 56.480469 56.648438 L 56.480469 55.457031 Z M 50.535156 55.457031 " fill-opacity="1" fill-rule="nonzero"/></g><g clip-path="url(#60b4c9406f)"><path fill="#ffffff" d="M 28.128906 3.386719 L 28.128906 53.523438 L 29.203125 53.523438 L 29.203125 3.386719 Z M 28.128906 3.386719 " fill-opacity="1" fill-rule="nonzero"/></g><g clip-path="url(#fea41f1fe6)"><path fill="#ffffff" d="M 2.226562 1.023438 L 2.226562 56.648438 L 1.035156 56.648438 L 1.035156 1.023438 Z M 2.226562 1.023438 " fill-opacity="1" fill-rule="nonzero"/></g><g clip-path="url(#d83a89e981)"><path fill="#ffffff" d="M 6.976562 0 L 6.976562 1.023438 L 1.035156 1.023438 L 1.035156 0 Z M 6.976562 0 " fill-opacity="1" fill-rule="nonzero"/></g><g clip-path="url(#262abfff1e)"><path fill="#ffffff" d="M 6.976562 55.460938 L 6.976562 56.65625 L 1.035156 56.65625 L 1.035156 55.460938 Z M 6.976562 55.460938 " fill-opacity="1" fill-rule="nonzero"/></g></svg>